M48
; DRILL file {KiCad 8.0.5} date 2024-09-18T02:56:48+0900
; FORMAT={-:-/ absolute / inch / decimal}
; #@! TF.CreationDate,2024-09-18T02:56:48+09:00
; #@! TF.GenerationSoftware,Kicad,Pcbnew,8.0.5
; #@! TF.FileFunction,Plated,1,2,PTH
FMAT,2
INCH
; #@! TA.AperFunction,Plated,PTH,ViaDrill
T1C0.0118
; #@! TA.AperFunction,Plated,PTH,ComponentDrill
T2C0.0197
; #@! TA.AperFunction,Plated,PTH,ComponentDrill
T3C0.0335
; #@! TA.AperFunction,Plated,PTH,ComponentDrill
T4C0.0394
; #@! TA.AperFunction,Plated,PTH,ComponentDrill
T5C0.1260
%
G90
G05
T1
X4.03Y-2.54
X4.03Y-2.92
X4.11Y-2.72
X4.31Y-3.19
X4.32Y-2.11
X4.4Y-2.58
X4.43Y-3.43
X4.44Y-2.17
X4.44Y-2.55
X4.48Y-3.26
X4.51Y-3.23
X4.75Y-3.14
X4.77Y-3.38
X4.98Y-3.31
X5.1Y-3.15
X5.23Y-3.43
X5.38Y-2.38
X5.38Y-3.04
X5.42Y-3.2
X5.45Y-2.55
X5.46Y-2.62
X5.46Y-2.94
X5.51Y-2.34
X5.53Y-2.45
X5.56Y-2.67
X5.56Y-3.21
X5.68Y-2.42
X5.7Y-2.55
X5.75Y-2.95
T2
X4.0394Y-2.2402
X4.0394Y-3.3465
X4.067Y-2.1733
X4.067Y-2.307
X4.067Y-3.2796
X4.067Y-3.4133
X4.1339Y-2.1457
X4.1339Y-2.3346
X4.1339Y-3.252
X4.1339Y-3.4409
X4.2007Y-2.1733
X4.2007Y-2.307
X4.2007Y-3.2796
X4.2007Y-3.4133
X4.2283Y-2.2402
X4.2283Y-3.3465
X5.6142Y-2.2402
X5.6142Y-3.3465
X5.6418Y-2.1733
X5.6418Y-2.307
X5.6418Y-3.2796
X5.6418Y-3.4133
X5.7087Y-2.1457
X5.7087Y-2.3346
X5.7087Y-3.252
X5.7087Y-3.4409
X5.7755Y-2.1733
X5.7755Y-2.307
X5.7755Y-3.2796
X5.7755Y-3.4133
X5.8031Y-2.2402
X5.8031Y-3.3465
T3
X4.6193Y-2.0291
X4.6213Y-2.1291
X4.6213Y-2.2291
X4.6213Y-2.3291
X4.6213Y-2.4291
X4.6213Y-2.5291
X4.6213Y-2.6291
X4.6213Y-2.7291
X4.6213Y-2.8291
X4.7213Y-2.8311
X4.8213Y-2.8311
X4.9213Y-2.8311
X5.0213Y-2.8311
X5.1213Y-2.8311
X5.2232Y-2.0291
X5.2232Y-2.1291
X5.2232Y-2.2291
X5.2232Y-2.3291
X5.2232Y-2.4291
X5.2232Y-2.5291
X5.2232Y-2.6291
X5.2232Y-2.7291
X5.2232Y-2.8291
T4
X4.12Y-3.07
X4.22Y-3.07
X4.29Y-2.48
X4.29Y-2.58
X4.29Y-2.68
X4.29Y-2.78
X4.29Y-2.88
X4.5539Y-3.07
X4.6539Y-3.07
X4.9877Y-3.07
X5.0877Y-3.07
X5.1877Y-3.07
X5.5004Y-2.85
X5.52Y-3.07
X5.6004Y-2.85
X5.62Y-3.07
X5.7004Y-2.85
X5.72Y-3.07
X5.79Y-2.47
X5.79Y-2.57
X5.79Y-2.67
X5.8004Y-2.85
T5
X4.1339Y-2.2402
X4.1339Y-3.3465
X5.7087Y-2.2402
X5.7087Y-3.3465
M30
