%TF.GenerationSoftware,KiCad,Pcbnew,8.0.5*%
%TF.CreationDate,2024-09-18T02:56:50+09:00*%
%TF.ProjectId,MIDI_Pedal,4d494449-5f50-4656-9461-6c2e6b696361,rev?*%
%TF.SameCoordinates,Original*%
%TF.FileFunction,Drillmap*%
%TF.FilePolarity,Positive*%
%FSLAX45Y45*%
G04 Gerber Fmt 4.5, Leading zero omitted, Abs format (unit mm)*
G04 Created by KiCad (PCBNEW 8.0.5) date 2024-09-18 02:56:50*
%MOMM*%
%LPD*%
G01*
G04 APERTURE LIST*
%ADD10C,0.050000*%
%ADD11C,0.200000*%
%ADD12C,0.100000*%
%ADD13C,0.320000*%
G04 APERTURE END LIST*
D10*
X15000000Y-8803800D02*
G75*
G02*
X14800000Y-9003800I-200000J0D01*
G01*
X10200000Y-9003800D02*
G75*
G02*
X10000000Y-8803800I0J200000D01*
G01*
X10000000Y-5203800D02*
G75*
G02*
X10200000Y-5003800I200000J0D01*
G01*
X14800000Y-5003800D02*
G75*
G02*
X15000000Y-5203800I0J-200000D01*
G01*
X14800000Y-9003800D02*
X10200000Y-9003800D01*
X11866400Y-5003800D02*
X11866400Y-7056600D01*
X15000000Y-5203800D02*
X15000000Y-8803800D01*
X11866400Y-5003800D02*
X10200000Y-5003800D01*
X13130000Y-7056600D02*
X13130000Y-5003800D01*
X10000000Y-5203800D02*
X10000000Y-8803800D01*
X13130000Y-5003800D02*
X14800000Y-5003800D01*
X11866400Y-7056600D02*
X13130000Y-7056600D01*
D11*
D12*
X10221200Y-6436600D02*
X10251200Y-6466600D01*
X10251200Y-6436600D02*
X10221200Y-6466600D01*
X10221200Y-7401800D02*
X10251200Y-7431800D01*
X10251200Y-7401800D02*
X10221200Y-7431800D01*
X10424400Y-6893800D02*
X10454400Y-6923800D01*
X10454400Y-6893800D02*
X10424400Y-6923800D01*
X10932400Y-8087600D02*
X10962400Y-8117600D01*
X10962400Y-8087600D02*
X10932400Y-8117600D01*
X10957800Y-5344400D02*
X10987800Y-5374400D01*
X10987800Y-5344400D02*
X10957800Y-5374400D01*
X11161000Y-6538200D02*
X11191000Y-6568200D01*
X11191000Y-6538200D02*
X11161000Y-6568200D01*
X11237200Y-8697200D02*
X11267200Y-8727200D01*
X11267200Y-8697200D02*
X11237200Y-8727200D01*
X11262600Y-5496800D02*
X11292600Y-5526800D01*
X11292600Y-5496800D02*
X11262600Y-5526800D01*
X11262600Y-6462000D02*
X11292600Y-6492000D01*
X11292600Y-6462000D02*
X11262600Y-6492000D01*
X11364200Y-8265400D02*
X11394200Y-8295400D01*
X11394200Y-8265400D02*
X11364200Y-8295400D01*
X11440400Y-8189200D02*
X11470400Y-8219200D01*
X11470400Y-8189200D02*
X11440400Y-8219200D01*
X12050000Y-7960600D02*
X12080000Y-7990600D01*
X12080000Y-7960600D02*
X12050000Y-7990600D01*
X12100800Y-8570200D02*
X12130800Y-8600200D01*
X12130800Y-8570200D02*
X12100800Y-8600200D01*
X12634200Y-8392400D02*
X12664200Y-8422400D01*
X12664200Y-8392400D02*
X12634200Y-8422400D01*
X12939000Y-7986000D02*
X12969000Y-8016000D01*
X12969000Y-7986000D02*
X12939000Y-8016000D01*
X13269200Y-8697200D02*
X13299200Y-8727200D01*
X13299200Y-8697200D02*
X13269200Y-8727200D01*
X13650200Y-6030200D02*
X13680200Y-6060200D01*
X13680200Y-6030200D02*
X13650200Y-6060200D01*
X13650200Y-7706600D02*
X13680200Y-7736600D01*
X13680200Y-7706600D02*
X13650200Y-7736600D01*
X13751800Y-8113000D02*
X13781800Y-8143000D01*
X13781800Y-8113000D02*
X13751800Y-8143000D01*
X13828000Y-6462000D02*
X13858000Y-6492000D01*
X13858000Y-6462000D02*
X13828000Y-6492000D01*
X13853400Y-6639800D02*
X13883400Y-6669800D01*
X13883400Y-6639800D02*
X13853400Y-6669800D01*
X13853400Y-7452600D02*
X13883400Y-7482600D01*
X13883400Y-7452600D02*
X13853400Y-7482600D01*
X13980400Y-5928600D02*
X14010400Y-5958600D01*
X14010400Y-5928600D02*
X13980400Y-5958600D01*
X14031200Y-6208000D02*
X14061200Y-6238000D01*
X14061200Y-6208000D02*
X14031200Y-6238000D01*
X14107400Y-6766800D02*
X14137400Y-6796800D01*
X14137400Y-6766800D02*
X14107400Y-6796800D01*
X14107400Y-8138400D02*
X14137400Y-8168400D01*
X14137400Y-8138400D02*
X14107400Y-8168400D01*
X14412200Y-6131800D02*
X14442200Y-6161800D01*
X14442200Y-6131800D02*
X14412200Y-6161800D01*
X14463000Y-6462000D02*
X14493000Y-6492000D01*
X14493000Y-6462000D02*
X14463000Y-6492000D01*
X14590000Y-7478000D02*
X14620000Y-7508000D01*
X14620000Y-7478000D02*
X14590000Y-7508000D01*
X10285000Y-5690000D02*
G75*
G02*
X10235000Y-5690000I-25000J0D01*
G01*
X10235000Y-5690000D02*
G75*
G02*
X10285000Y-5690000I25000J0D01*
G01*
X10285000Y-8500000D02*
G75*
G02*
X10235000Y-8500000I-25000J0D01*
G01*
X10235000Y-8500000D02*
G75*
G02*
X10285000Y-8500000I25000J0D01*
G01*
X10355294Y-5520294D02*
G75*
G02*
X10305294Y-5520294I-25000J0D01*
G01*
X10305294Y-5520294D02*
G75*
G02*
X10355294Y-5520294I25000J0D01*
G01*
X10355294Y-5859706D02*
G75*
G02*
X10305294Y-5859706I-25000J0D01*
G01*
X10305294Y-5859706D02*
G75*
G02*
X10355294Y-5859706I25000J0D01*
G01*
X10355294Y-8330294D02*
G75*
G02*
X10305294Y-8330294I-25000J0D01*
G01*
X10305294Y-8330294D02*
G75*
G02*
X10355294Y-8330294I25000J0D01*
G01*
X10355294Y-8669706D02*
G75*
G02*
X10305294Y-8669706I-25000J0D01*
G01*
X10305294Y-8669706D02*
G75*
G02*
X10355294Y-8669706I25000J0D01*
G01*
X10525000Y-5450000D02*
G75*
G02*
X10475000Y-5450000I-25000J0D01*
G01*
X10475000Y-5450000D02*
G75*
G02*
X10525000Y-5450000I25000J0D01*
G01*
X10525000Y-5930000D02*
G75*
G02*
X10475000Y-5930000I-25000J0D01*
G01*
X10475000Y-5930000D02*
G75*
G02*
X10525000Y-5930000I25000J0D01*
G01*
X10525000Y-8260000D02*
G75*
G02*
X10475000Y-8260000I-25000J0D01*
G01*
X10475000Y-8260000D02*
G75*
G02*
X10525000Y-8260000I25000J0D01*
G01*
X10525000Y-8740000D02*
G75*
G02*
X10475000Y-8740000I-25000J0D01*
G01*
X10475000Y-8740000D02*
G75*
G02*
X10525000Y-8740000I25000J0D01*
G01*
X10694706Y-5520294D02*
G75*
G02*
X10644706Y-5520294I-25000J0D01*
G01*
X10644706Y-5520294D02*
G75*
G02*
X10694706Y-5520294I25000J0D01*
G01*
X10694706Y-5859706D02*
G75*
G02*
X10644706Y-5859706I-25000J0D01*
G01*
X10644706Y-5859706D02*
G75*
G02*
X10694706Y-5859706I25000J0D01*
G01*
X10694706Y-8330294D02*
G75*
G02*
X10644706Y-8330294I-25000J0D01*
G01*
X10644706Y-8330294D02*
G75*
G02*
X10694706Y-8330294I25000J0D01*
G01*
X10694706Y-8669706D02*
G75*
G02*
X10644706Y-8669706I-25000J0D01*
G01*
X10644706Y-8669706D02*
G75*
G02*
X10694706Y-8669706I25000J0D01*
G01*
X10765000Y-5690000D02*
G75*
G02*
X10715000Y-5690000I-25000J0D01*
G01*
X10715000Y-5690000D02*
G75*
G02*
X10765000Y-5690000I25000J0D01*
G01*
X10765000Y-8500000D02*
G75*
G02*
X10715000Y-8500000I-25000J0D01*
G01*
X10715000Y-8500000D02*
G75*
G02*
X10765000Y-8500000I25000J0D01*
G01*
X14285000Y-5690000D02*
G75*
G02*
X14235000Y-5690000I-25000J0D01*
G01*
X14235000Y-5690000D02*
G75*
G02*
X14285000Y-5690000I25000J0D01*
G01*
X14285000Y-8500000D02*
G75*
G02*
X14235000Y-8500000I-25000J0D01*
G01*
X14235000Y-8500000D02*
G75*
G02*
X14285000Y-8500000I25000J0D01*
G01*
X14355294Y-5520294D02*
G75*
G02*
X14305294Y-5520294I-25000J0D01*
G01*
X14305294Y-5520294D02*
G75*
G02*
X14355294Y-5520294I25000J0D01*
G01*
X14355294Y-5859706D02*
G75*
G02*
X14305294Y-5859706I-25000J0D01*
G01*
X14305294Y-5859706D02*
G75*
G02*
X14355294Y-5859706I25000J0D01*
G01*
X14355294Y-8330294D02*
G75*
G02*
X14305294Y-8330294I-25000J0D01*
G01*
X14305294Y-8330294D02*
G75*
G02*
X14355294Y-8330294I25000J0D01*
G01*
X14355294Y-8669706D02*
G75*
G02*
X14305294Y-8669706I-25000J0D01*
G01*
X14305294Y-8669706D02*
G75*
G02*
X14355294Y-8669706I25000J0D01*
G01*
X14525000Y-5450000D02*
G75*
G02*
X14475000Y-5450000I-25000J0D01*
G01*
X14475000Y-5450000D02*
G75*
G02*
X14525000Y-5450000I25000J0D01*
G01*
X14525000Y-5930000D02*
G75*
G02*
X14475000Y-5930000I-25000J0D01*
G01*
X14475000Y-5930000D02*
G75*
G02*
X14525000Y-5930000I25000J0D01*
G01*
X14525000Y-8260000D02*
G75*
G02*
X14475000Y-8260000I-25000J0D01*
G01*
X14475000Y-8260000D02*
G75*
G02*
X14525000Y-8260000I25000J0D01*
G01*
X14525000Y-8740000D02*
G75*
G02*
X14475000Y-8740000I-25000J0D01*
G01*
X14475000Y-8740000D02*
G75*
G02*
X14525000Y-8740000I25000J0D01*
G01*
X14694706Y-5520294D02*
G75*
G02*
X14644706Y-5520294I-25000J0D01*
G01*
X14644706Y-5520294D02*
G75*
G02*
X14694706Y-5520294I25000J0D01*
G01*
X14694706Y-5859706D02*
G75*
G02*
X14644706Y-5859706I-25000J0D01*
G01*
X14644706Y-5859706D02*
G75*
G02*
X14694706Y-5859706I25000J0D01*
G01*
X14694706Y-8330294D02*
G75*
G02*
X14644706Y-8330294I-25000J0D01*
G01*
X14644706Y-8330294D02*
G75*
G02*
X14694706Y-8330294I25000J0D01*
G01*
X14694706Y-8669706D02*
G75*
G02*
X14644706Y-8669706I-25000J0D01*
G01*
X14644706Y-8669706D02*
G75*
G02*
X14694706Y-8669706I25000J0D01*
G01*
X14765000Y-5690000D02*
G75*
G02*
X14715000Y-5690000I-25000J0D01*
G01*
X14715000Y-5690000D02*
G75*
G02*
X14765000Y-5690000I25000J0D01*
G01*
X14765000Y-8500000D02*
G75*
G02*
X14715000Y-8500000I-25000J0D01*
G01*
X14715000Y-8500000D02*
G75*
G02*
X14765000Y-8500000I25000J0D01*
G01*
X11733000Y-5111500D02*
X11733000Y-5196500D01*
X11690500Y-5154000D02*
X11775500Y-5154000D01*
X11738000Y-5365500D02*
X11738000Y-5450500D01*
X11695500Y-5408000D02*
X11780500Y-5408000D01*
X11738000Y-5619500D02*
X11738000Y-5704500D01*
X11695500Y-5662000D02*
X11780500Y-5662000D01*
X11738000Y-5873500D02*
X11738000Y-5958500D01*
X11695500Y-5916000D02*
X11780500Y-5916000D01*
X11738000Y-6127500D02*
X11738000Y-6212500D01*
X11695500Y-6170000D02*
X11780500Y-6170000D01*
X11738000Y-6381500D02*
X11738000Y-6466500D01*
X11695500Y-6424000D02*
X11780500Y-6424000D01*
X11738000Y-6635500D02*
X11738000Y-6720500D01*
X11695500Y-6678000D02*
X11780500Y-6678000D01*
X11738000Y-6889500D02*
X11738000Y-6974500D01*
X11695500Y-6932000D02*
X11780500Y-6932000D01*
X11738000Y-7143500D02*
X11738000Y-7228500D01*
X11695500Y-7186000D02*
X11780500Y-7186000D01*
X11992000Y-7148500D02*
X11992000Y-7233500D01*
X11949500Y-7191000D02*
X12034500Y-7191000D01*
X12246000Y-7148500D02*
X12246000Y-7233500D01*
X12203500Y-7191000D02*
X12288500Y-7191000D01*
X12500000Y-7148500D02*
X12500000Y-7233500D01*
X12457500Y-7191000D02*
X12542500Y-7191000D01*
X12754000Y-7148500D02*
X12754000Y-7233500D01*
X12711500Y-7191000D02*
X12796500Y-7191000D01*
X13008000Y-7148500D02*
X13008000Y-7233500D01*
X12965500Y-7191000D02*
X13050500Y-7191000D01*
X13267000Y-5111500D02*
X13267000Y-5196500D01*
X13224500Y-5154000D02*
X13309500Y-5154000D01*
X13267000Y-5365500D02*
X13267000Y-5450500D01*
X13224500Y-5408000D02*
X13309500Y-5408000D01*
X13267000Y-5619500D02*
X13267000Y-5704500D01*
X13224500Y-5662000D02*
X13309500Y-5662000D01*
X13267000Y-5873500D02*
X13267000Y-5958500D01*
X13224500Y-5916000D02*
X13309500Y-5916000D01*
X13267000Y-6127500D02*
X13267000Y-6212500D01*
X13224500Y-6170000D02*
X13309500Y-6170000D01*
X13267000Y-6381500D02*
X13267000Y-6466500D01*
X13224500Y-6424000D02*
X13309500Y-6424000D01*
X13267000Y-6635500D02*
X13267000Y-6720500D01*
X13224500Y-6678000D02*
X13309500Y-6678000D01*
X13267000Y-6889500D02*
X13267000Y-6974500D01*
X13224500Y-6932000D02*
X13309500Y-6932000D01*
X13267000Y-7143500D02*
X13267000Y-7228500D01*
X13224500Y-7186000D02*
X13309500Y-7186000D01*
X10500156Y-7833156D02*
X10500156Y-7762444D01*
X10429444Y-7762444D01*
X10429444Y-7833156D01*
X10500156Y-7833156D01*
X10754156Y-7833156D02*
X10754156Y-7762444D01*
X10683444Y-7762444D01*
X10683444Y-7833156D01*
X10754156Y-7833156D01*
X10931956Y-6334556D02*
X10931956Y-6263844D01*
X10861244Y-6263844D01*
X10861244Y-6334556D01*
X10931956Y-6334556D01*
X10931956Y-6588556D02*
X10931956Y-6517844D01*
X10861244Y-6517844D01*
X10861244Y-6588556D01*
X10931956Y-6588556D01*
X10931956Y-6842556D02*
X10931956Y-6771844D01*
X10861244Y-6771844D01*
X10861244Y-6842556D01*
X10931956Y-6842556D01*
X10931956Y-7096556D02*
X10931956Y-7025844D01*
X10861244Y-7025844D01*
X10861244Y-7096556D01*
X10931956Y-7096556D01*
X10931956Y-7350556D02*
X10931956Y-7279844D01*
X10861244Y-7279844D01*
X10861244Y-7350556D01*
X10931956Y-7350556D01*
X11602156Y-7833156D02*
X11602156Y-7762444D01*
X11531444Y-7762444D01*
X11531444Y-7833156D01*
X11602156Y-7833156D01*
X11856156Y-7833156D02*
X11856156Y-7762444D01*
X11785444Y-7762444D01*
X11785444Y-7833156D01*
X11856156Y-7833156D01*
X12704156Y-7833156D02*
X12704156Y-7762444D01*
X12633444Y-7762444D01*
X12633444Y-7833156D01*
X12704156Y-7833156D01*
X12958156Y-7833156D02*
X12958156Y-7762444D01*
X12887444Y-7762444D01*
X12887444Y-7833156D01*
X12958156Y-7833156D01*
X13212156Y-7833156D02*
X13212156Y-7762444D01*
X13141444Y-7762444D01*
X13141444Y-7833156D01*
X13212156Y-7833156D01*
X14006356Y-7274356D02*
X14006356Y-7203644D01*
X13935644Y-7203644D01*
X13935644Y-7274356D01*
X14006356Y-7274356D01*
X14056156Y-7833156D02*
X14056156Y-7762444D01*
X13985444Y-7762444D01*
X13985444Y-7833156D01*
X14056156Y-7833156D01*
X14260356Y-7274356D02*
X14260356Y-7203644D01*
X14189644Y-7203644D01*
X14189644Y-7274356D01*
X14260356Y-7274356D01*
X14310156Y-7833156D02*
X14310156Y-7762444D01*
X14239444Y-7762444D01*
X14239444Y-7833156D01*
X14310156Y-7833156D01*
X14514356Y-7274356D02*
X14514356Y-7203644D01*
X14443644Y-7203644D01*
X14443644Y-7274356D01*
X14514356Y-7274356D01*
X14564156Y-7833156D02*
X14564156Y-7762444D01*
X14493444Y-7762444D01*
X14493444Y-7833156D01*
X14564156Y-7833156D01*
X14741956Y-6309156D02*
X14741956Y-6238444D01*
X14671244Y-6238444D01*
X14671244Y-6309156D01*
X14741956Y-6309156D01*
X14741956Y-6563156D02*
X14741956Y-6492444D01*
X14671244Y-6492444D01*
X14671244Y-6563156D01*
X14741956Y-6563156D01*
X14741956Y-6817156D02*
X14741956Y-6746444D01*
X14671244Y-6746444D01*
X14671244Y-6817156D01*
X14741956Y-6817156D01*
X14768356Y-7274356D02*
X14768356Y-7203644D01*
X14697644Y-7203644D01*
X14697644Y-7274356D01*
X14768356Y-7274356D01*
D13*
X10500000Y-5850000D02*
X10660000Y-5690000D01*
X10500000Y-5530000D01*
X10340000Y-5690000D01*
X10500000Y-5850000D01*
X10500000Y-8660000D02*
X10660000Y-8500000D01*
X10500000Y-8340000D01*
X10340000Y-8500000D01*
X10500000Y-8660000D01*
X14500000Y-5850000D02*
X14660000Y-5690000D01*
X14500000Y-5530000D01*
X14340000Y-5690000D01*
X14500000Y-5850000D01*
X14500000Y-8660000D02*
X14660000Y-8500000D01*
X14500000Y-8340000D01*
X14340000Y-8500000D01*
X14500000Y-8660000D01*
D11*
X10258277Y-9317784D02*
X10258277Y-9117784D01*
X10258277Y-9117784D02*
X10305896Y-9117784D01*
X10305896Y-9117784D02*
X10334467Y-9127308D01*
X10334467Y-9127308D02*
X10353515Y-9146355D01*
X10353515Y-9146355D02*
X10363039Y-9165403D01*
X10363039Y-9165403D02*
X10372563Y-9203498D01*
X10372563Y-9203498D02*
X10372563Y-9232070D01*
X10372563Y-9232070D02*
X10363039Y-9270165D01*
X10363039Y-9270165D02*
X10353515Y-9289212D01*
X10353515Y-9289212D02*
X10334467Y-9308260D01*
X10334467Y-9308260D02*
X10305896Y-9317784D01*
X10305896Y-9317784D02*
X10258277Y-9317784D01*
X10458277Y-9317784D02*
X10458277Y-9184450D01*
X10458277Y-9222546D02*
X10467801Y-9203498D01*
X10467801Y-9203498D02*
X10477324Y-9193974D01*
X10477324Y-9193974D02*
X10496372Y-9184450D01*
X10496372Y-9184450D02*
X10515420Y-9184450D01*
X10582086Y-9317784D02*
X10582086Y-9184450D01*
X10582086Y-9117784D02*
X10572563Y-9127308D01*
X10572563Y-9127308D02*
X10582086Y-9136831D01*
X10582086Y-9136831D02*
X10591610Y-9127308D01*
X10591610Y-9127308D02*
X10582086Y-9117784D01*
X10582086Y-9117784D02*
X10582086Y-9136831D01*
X10705896Y-9317784D02*
X10686848Y-9308260D01*
X10686848Y-9308260D02*
X10677324Y-9289212D01*
X10677324Y-9289212D02*
X10677324Y-9117784D01*
X10810658Y-9317784D02*
X10791610Y-9308260D01*
X10791610Y-9308260D02*
X10782086Y-9289212D01*
X10782086Y-9289212D02*
X10782086Y-9117784D01*
X11039229Y-9317784D02*
X11039229Y-9117784D01*
X11039229Y-9117784D02*
X11105896Y-9260641D01*
X11105896Y-9260641D02*
X11172563Y-9117784D01*
X11172563Y-9117784D02*
X11172563Y-9317784D01*
X11353515Y-9317784D02*
X11353515Y-9213022D01*
X11353515Y-9213022D02*
X11343991Y-9193974D01*
X11343991Y-9193974D02*
X11324943Y-9184450D01*
X11324943Y-9184450D02*
X11286848Y-9184450D01*
X11286848Y-9184450D02*
X11267801Y-9193974D01*
X11353515Y-9308260D02*
X11334467Y-9317784D01*
X11334467Y-9317784D02*
X11286848Y-9317784D01*
X11286848Y-9317784D02*
X11267801Y-9308260D01*
X11267801Y-9308260D02*
X11258277Y-9289212D01*
X11258277Y-9289212D02*
X11258277Y-9270165D01*
X11258277Y-9270165D02*
X11267801Y-9251117D01*
X11267801Y-9251117D02*
X11286848Y-9241593D01*
X11286848Y-9241593D02*
X11334467Y-9241593D01*
X11334467Y-9241593D02*
X11353515Y-9232070D01*
X11448753Y-9184450D02*
X11448753Y-9384450D01*
X11448753Y-9193974D02*
X11467801Y-9184450D01*
X11467801Y-9184450D02*
X11505896Y-9184450D01*
X11505896Y-9184450D02*
X11524943Y-9193974D01*
X11524943Y-9193974D02*
X11534467Y-9203498D01*
X11534467Y-9203498D02*
X11543991Y-9222546D01*
X11543991Y-9222546D02*
X11543991Y-9279689D01*
X11543991Y-9279689D02*
X11534467Y-9298736D01*
X11534467Y-9298736D02*
X11524943Y-9308260D01*
X11524943Y-9308260D02*
X11505896Y-9317784D01*
X11505896Y-9317784D02*
X11467801Y-9317784D01*
X11467801Y-9317784D02*
X11448753Y-9308260D01*
X11629705Y-9298736D02*
X11639229Y-9308260D01*
X11639229Y-9308260D02*
X11629705Y-9317784D01*
X11629705Y-9317784D02*
X11620182Y-9308260D01*
X11620182Y-9308260D02*
X11629705Y-9298736D01*
X11629705Y-9298736D02*
X11629705Y-9317784D01*
X11629705Y-9193974D02*
X11639229Y-9203498D01*
X11639229Y-9203498D02*
X11629705Y-9213022D01*
X11629705Y-9213022D02*
X11620182Y-9203498D01*
X11620182Y-9203498D02*
X11629705Y-9193974D01*
X11629705Y-9193974D02*
X11629705Y-9213022D01*
D12*
X9967500Y-9631300D02*
X9997500Y-9661300D01*
X9997500Y-9631300D02*
X9967500Y-9661300D01*
D11*
X10296372Y-9537784D02*
X10315420Y-9537784D01*
X10315420Y-9537784D02*
X10334467Y-9547308D01*
X10334467Y-9547308D02*
X10343991Y-9556831D01*
X10343991Y-9556831D02*
X10353515Y-9575879D01*
X10353515Y-9575879D02*
X10363039Y-9613974D01*
X10363039Y-9613974D02*
X10363039Y-9661593D01*
X10363039Y-9661593D02*
X10353515Y-9699689D01*
X10353515Y-9699689D02*
X10343991Y-9718736D01*
X10343991Y-9718736D02*
X10334467Y-9728260D01*
X10334467Y-9728260D02*
X10315420Y-9737784D01*
X10315420Y-9737784D02*
X10296372Y-9737784D01*
X10296372Y-9737784D02*
X10277324Y-9728260D01*
X10277324Y-9728260D02*
X10267801Y-9718736D01*
X10267801Y-9718736D02*
X10258277Y-9699689D01*
X10258277Y-9699689D02*
X10248753Y-9661593D01*
X10248753Y-9661593D02*
X10248753Y-9613974D01*
X10248753Y-9613974D02*
X10258277Y-9575879D01*
X10258277Y-9575879D02*
X10267801Y-9556831D01*
X10267801Y-9556831D02*
X10277324Y-9547308D01*
X10277324Y-9547308D02*
X10296372Y-9537784D01*
X10448753Y-9718736D02*
X10458277Y-9728260D01*
X10458277Y-9728260D02*
X10448753Y-9737784D01*
X10448753Y-9737784D02*
X10439229Y-9728260D01*
X10439229Y-9728260D02*
X10448753Y-9718736D01*
X10448753Y-9718736D02*
X10448753Y-9737784D01*
X10524944Y-9537784D02*
X10648753Y-9537784D01*
X10648753Y-9537784D02*
X10582086Y-9613974D01*
X10582086Y-9613974D02*
X10610658Y-9613974D01*
X10610658Y-9613974D02*
X10629705Y-9623498D01*
X10629705Y-9623498D02*
X10639229Y-9633022D01*
X10639229Y-9633022D02*
X10648753Y-9652070D01*
X10648753Y-9652070D02*
X10648753Y-9699689D01*
X10648753Y-9699689D02*
X10639229Y-9718736D01*
X10639229Y-9718736D02*
X10629705Y-9728260D01*
X10629705Y-9728260D02*
X10610658Y-9737784D01*
X10610658Y-9737784D02*
X10553515Y-9737784D01*
X10553515Y-9737784D02*
X10534467Y-9728260D01*
X10534467Y-9728260D02*
X10524944Y-9718736D01*
X10772563Y-9537784D02*
X10791610Y-9537784D01*
X10791610Y-9537784D02*
X10810658Y-9547308D01*
X10810658Y-9547308D02*
X10820182Y-9556831D01*
X10820182Y-9556831D02*
X10829705Y-9575879D01*
X10829705Y-9575879D02*
X10839229Y-9613974D01*
X10839229Y-9613974D02*
X10839229Y-9661593D01*
X10839229Y-9661593D02*
X10829705Y-9699689D01*
X10829705Y-9699689D02*
X10820182Y-9718736D01*
X10820182Y-9718736D02*
X10810658Y-9728260D01*
X10810658Y-9728260D02*
X10791610Y-9737784D01*
X10791610Y-9737784D02*
X10772563Y-9737784D01*
X10772563Y-9737784D02*
X10753515Y-9728260D01*
X10753515Y-9728260D02*
X10743991Y-9718736D01*
X10743991Y-9718736D02*
X10734467Y-9699689D01*
X10734467Y-9699689D02*
X10724944Y-9661593D01*
X10724944Y-9661593D02*
X10724944Y-9613974D01*
X10724944Y-9613974D02*
X10734467Y-9575879D01*
X10734467Y-9575879D02*
X10743991Y-9556831D01*
X10743991Y-9556831D02*
X10753515Y-9547308D01*
X10753515Y-9547308D02*
X10772563Y-9537784D01*
X10963039Y-9537784D02*
X10982086Y-9537784D01*
X10982086Y-9537784D02*
X11001134Y-9547308D01*
X11001134Y-9547308D02*
X11010658Y-9556831D01*
X11010658Y-9556831D02*
X11020182Y-9575879D01*
X11020182Y-9575879D02*
X11029705Y-9613974D01*
X11029705Y-9613974D02*
X11029705Y-9661593D01*
X11029705Y-9661593D02*
X11020182Y-9699689D01*
X11020182Y-9699689D02*
X11010658Y-9718736D01*
X11010658Y-9718736D02*
X11001134Y-9728260D01*
X11001134Y-9728260D02*
X10982086Y-9737784D01*
X10982086Y-9737784D02*
X10963039Y-9737784D01*
X10963039Y-9737784D02*
X10943991Y-9728260D01*
X10943991Y-9728260D02*
X10934467Y-9718736D01*
X10934467Y-9718736D02*
X10924944Y-9699689D01*
X10924944Y-9699689D02*
X10915420Y-9661593D01*
X10915420Y-9661593D02*
X10915420Y-9613974D01*
X10915420Y-9613974D02*
X10924944Y-9575879D01*
X10924944Y-9575879D02*
X10934467Y-9556831D01*
X10934467Y-9556831D02*
X10943991Y-9547308D01*
X10943991Y-9547308D02*
X10963039Y-9537784D01*
X11115420Y-9737784D02*
X11115420Y-9604450D01*
X11115420Y-9623498D02*
X11124944Y-9613974D01*
X11124944Y-9613974D02*
X11143991Y-9604450D01*
X11143991Y-9604450D02*
X11172563Y-9604450D01*
X11172563Y-9604450D02*
X11191610Y-9613974D01*
X11191610Y-9613974D02*
X11201134Y-9633022D01*
X11201134Y-9633022D02*
X11201134Y-9737784D01*
X11201134Y-9633022D02*
X11210658Y-9613974D01*
X11210658Y-9613974D02*
X11229705Y-9604450D01*
X11229705Y-9604450D02*
X11258277Y-9604450D01*
X11258277Y-9604450D02*
X11277324Y-9613974D01*
X11277324Y-9613974D02*
X11286848Y-9633022D01*
X11286848Y-9633022D02*
X11286848Y-9737784D01*
X11382086Y-9737784D02*
X11382086Y-9604450D01*
X11382086Y-9623498D02*
X11391610Y-9613974D01*
X11391610Y-9613974D02*
X11410658Y-9604450D01*
X11410658Y-9604450D02*
X11439229Y-9604450D01*
X11439229Y-9604450D02*
X11458277Y-9613974D01*
X11458277Y-9613974D02*
X11467801Y-9633022D01*
X11467801Y-9633022D02*
X11467801Y-9737784D01*
X11467801Y-9633022D02*
X11477324Y-9613974D01*
X11477324Y-9613974D02*
X11496372Y-9604450D01*
X11496372Y-9604450D02*
X11524943Y-9604450D01*
X11524943Y-9604450D02*
X11543991Y-9613974D01*
X11543991Y-9613974D02*
X11553515Y-9633022D01*
X11553515Y-9633022D02*
X11553515Y-9737784D01*
X11943991Y-9528260D02*
X11772563Y-9785403D01*
X12201134Y-9537784D02*
X12220182Y-9537784D01*
X12220182Y-9537784D02*
X12239229Y-9547308D01*
X12239229Y-9547308D02*
X12248753Y-9556831D01*
X12248753Y-9556831D02*
X12258277Y-9575879D01*
X12258277Y-9575879D02*
X12267801Y-9613974D01*
X12267801Y-9613974D02*
X12267801Y-9661593D01*
X12267801Y-9661593D02*
X12258277Y-9699689D01*
X12258277Y-9699689D02*
X12248753Y-9718736D01*
X12248753Y-9718736D02*
X12239229Y-9728260D01*
X12239229Y-9728260D02*
X12220182Y-9737784D01*
X12220182Y-9737784D02*
X12201134Y-9737784D01*
X12201134Y-9737784D02*
X12182086Y-9728260D01*
X12182086Y-9728260D02*
X12172563Y-9718736D01*
X12172563Y-9718736D02*
X12163039Y-9699689D01*
X12163039Y-9699689D02*
X12153515Y-9661593D01*
X12153515Y-9661593D02*
X12153515Y-9613974D01*
X12153515Y-9613974D02*
X12163039Y-9575879D01*
X12163039Y-9575879D02*
X12172563Y-9556831D01*
X12172563Y-9556831D02*
X12182086Y-9547308D01*
X12182086Y-9547308D02*
X12201134Y-9537784D01*
X12353515Y-9718736D02*
X12363039Y-9728260D01*
X12363039Y-9728260D02*
X12353515Y-9737784D01*
X12353515Y-9737784D02*
X12343991Y-9728260D01*
X12343991Y-9728260D02*
X12353515Y-9718736D01*
X12353515Y-9718736D02*
X12353515Y-9737784D01*
X12486848Y-9537784D02*
X12505896Y-9537784D01*
X12505896Y-9537784D02*
X12524944Y-9547308D01*
X12524944Y-9547308D02*
X12534467Y-9556831D01*
X12534467Y-9556831D02*
X12543991Y-9575879D01*
X12543991Y-9575879D02*
X12553515Y-9613974D01*
X12553515Y-9613974D02*
X12553515Y-9661593D01*
X12553515Y-9661593D02*
X12543991Y-9699689D01*
X12543991Y-9699689D02*
X12534467Y-9718736D01*
X12534467Y-9718736D02*
X12524944Y-9728260D01*
X12524944Y-9728260D02*
X12505896Y-9737784D01*
X12505896Y-9737784D02*
X12486848Y-9737784D01*
X12486848Y-9737784D02*
X12467801Y-9728260D01*
X12467801Y-9728260D02*
X12458277Y-9718736D01*
X12458277Y-9718736D02*
X12448753Y-9699689D01*
X12448753Y-9699689D02*
X12439229Y-9661593D01*
X12439229Y-9661593D02*
X12439229Y-9613974D01*
X12439229Y-9613974D02*
X12448753Y-9575879D01*
X12448753Y-9575879D02*
X12458277Y-9556831D01*
X12458277Y-9556831D02*
X12467801Y-9547308D01*
X12467801Y-9547308D02*
X12486848Y-9537784D01*
X12743991Y-9737784D02*
X12629706Y-9737784D01*
X12686848Y-9737784D02*
X12686848Y-9537784D01*
X12686848Y-9537784D02*
X12667801Y-9566355D01*
X12667801Y-9566355D02*
X12648753Y-9585403D01*
X12648753Y-9585403D02*
X12629706Y-9594927D01*
X12934467Y-9737784D02*
X12820182Y-9737784D01*
X12877325Y-9737784D02*
X12877325Y-9537784D01*
X12877325Y-9537784D02*
X12858277Y-9566355D01*
X12858277Y-9566355D02*
X12839229Y-9585403D01*
X12839229Y-9585403D02*
X12820182Y-9594927D01*
X13048753Y-9623498D02*
X13029706Y-9613974D01*
X13029706Y-9613974D02*
X13020182Y-9604450D01*
X13020182Y-9604450D02*
X13010658Y-9585403D01*
X13010658Y-9585403D02*
X13010658Y-9575879D01*
X13010658Y-9575879D02*
X13020182Y-9556831D01*
X13020182Y-9556831D02*
X13029706Y-9547308D01*
X13029706Y-9547308D02*
X13048753Y-9537784D01*
X13048753Y-9537784D02*
X13086848Y-9537784D01*
X13086848Y-9537784D02*
X13105896Y-9547308D01*
X13105896Y-9547308D02*
X13115420Y-9556831D01*
X13115420Y-9556831D02*
X13124944Y-9575879D01*
X13124944Y-9575879D02*
X13124944Y-9585403D01*
X13124944Y-9585403D02*
X13115420Y-9604450D01*
X13115420Y-9604450D02*
X13105896Y-9613974D01*
X13105896Y-9613974D02*
X13086848Y-9623498D01*
X13086848Y-9623498D02*
X13048753Y-9623498D01*
X13048753Y-9623498D02*
X13029706Y-9633022D01*
X13029706Y-9633022D02*
X13020182Y-9642546D01*
X13020182Y-9642546D02*
X13010658Y-9661593D01*
X13010658Y-9661593D02*
X13010658Y-9699689D01*
X13010658Y-9699689D02*
X13020182Y-9718736D01*
X13020182Y-9718736D02*
X13029706Y-9728260D01*
X13029706Y-9728260D02*
X13048753Y-9737784D01*
X13048753Y-9737784D02*
X13086848Y-9737784D01*
X13086848Y-9737784D02*
X13105896Y-9728260D01*
X13105896Y-9728260D02*
X13115420Y-9718736D01*
X13115420Y-9718736D02*
X13124944Y-9699689D01*
X13124944Y-9699689D02*
X13124944Y-9661593D01*
X13124944Y-9661593D02*
X13115420Y-9642546D01*
X13115420Y-9642546D02*
X13105896Y-9633022D01*
X13105896Y-9633022D02*
X13086848Y-9623498D01*
X13201134Y-9537784D02*
X13201134Y-9575879D01*
X13277325Y-9537784D02*
X13277325Y-9575879D01*
X13572563Y-9813974D02*
X13563039Y-9804450D01*
X13563039Y-9804450D02*
X13543991Y-9775879D01*
X13543991Y-9775879D02*
X13534468Y-9756831D01*
X13534468Y-9756831D02*
X13524944Y-9728260D01*
X13524944Y-9728260D02*
X13515420Y-9680641D01*
X13515420Y-9680641D02*
X13515420Y-9642546D01*
X13515420Y-9642546D02*
X13524944Y-9594927D01*
X13524944Y-9594927D02*
X13534468Y-9566355D01*
X13534468Y-9566355D02*
X13543991Y-9547308D01*
X13543991Y-9547308D02*
X13563039Y-9518736D01*
X13563039Y-9518736D02*
X13572563Y-9509212D01*
X13639229Y-9556831D02*
X13648753Y-9547308D01*
X13648753Y-9547308D02*
X13667801Y-9537784D01*
X13667801Y-9537784D02*
X13715420Y-9537784D01*
X13715420Y-9537784D02*
X13734468Y-9547308D01*
X13734468Y-9547308D02*
X13743991Y-9556831D01*
X13743991Y-9556831D02*
X13753515Y-9575879D01*
X13753515Y-9575879D02*
X13753515Y-9594927D01*
X13753515Y-9594927D02*
X13743991Y-9623498D01*
X13743991Y-9623498D02*
X13629706Y-9737784D01*
X13629706Y-9737784D02*
X13753515Y-9737784D01*
X13848753Y-9737784D02*
X13886848Y-9737784D01*
X13886848Y-9737784D02*
X13905896Y-9728260D01*
X13905896Y-9728260D02*
X13915420Y-9718736D01*
X13915420Y-9718736D02*
X13934468Y-9690165D01*
X13934468Y-9690165D02*
X13943991Y-9652070D01*
X13943991Y-9652070D02*
X13943991Y-9575879D01*
X13943991Y-9575879D02*
X13934468Y-9556831D01*
X13934468Y-9556831D02*
X13924944Y-9547308D01*
X13924944Y-9547308D02*
X13905896Y-9537784D01*
X13905896Y-9537784D02*
X13867801Y-9537784D01*
X13867801Y-9537784D02*
X13848753Y-9547308D01*
X13848753Y-9547308D02*
X13839229Y-9556831D01*
X13839229Y-9556831D02*
X13829706Y-9575879D01*
X13829706Y-9575879D02*
X13829706Y-9623498D01*
X13829706Y-9623498D02*
X13839229Y-9642546D01*
X13839229Y-9642546D02*
X13848753Y-9652070D01*
X13848753Y-9652070D02*
X13867801Y-9661593D01*
X13867801Y-9661593D02*
X13905896Y-9661593D01*
X13905896Y-9661593D02*
X13924944Y-9652070D01*
X13924944Y-9652070D02*
X13934468Y-9642546D01*
X13934468Y-9642546D02*
X13943991Y-9623498D01*
X14182087Y-9737784D02*
X14182087Y-9537784D01*
X14267801Y-9737784D02*
X14267801Y-9633022D01*
X14267801Y-9633022D02*
X14258277Y-9613974D01*
X14258277Y-9613974D02*
X14239230Y-9604450D01*
X14239230Y-9604450D02*
X14210658Y-9604450D01*
X14210658Y-9604450D02*
X14191610Y-9613974D01*
X14191610Y-9613974D02*
X14182087Y-9623498D01*
X14391610Y-9737784D02*
X14372563Y-9728260D01*
X14372563Y-9728260D02*
X14363039Y-9718736D01*
X14363039Y-9718736D02*
X14353515Y-9699689D01*
X14353515Y-9699689D02*
X14353515Y-9642546D01*
X14353515Y-9642546D02*
X14363039Y-9623498D01*
X14363039Y-9623498D02*
X14372563Y-9613974D01*
X14372563Y-9613974D02*
X14391610Y-9604450D01*
X14391610Y-9604450D02*
X14420182Y-9604450D01*
X14420182Y-9604450D02*
X14439230Y-9613974D01*
X14439230Y-9613974D02*
X14448753Y-9623498D01*
X14448753Y-9623498D02*
X14458277Y-9642546D01*
X14458277Y-9642546D02*
X14458277Y-9699689D01*
X14458277Y-9699689D02*
X14448753Y-9718736D01*
X14448753Y-9718736D02*
X14439230Y-9728260D01*
X14439230Y-9728260D02*
X14420182Y-9737784D01*
X14420182Y-9737784D02*
X14391610Y-9737784D01*
X14572563Y-9737784D02*
X14553515Y-9728260D01*
X14553515Y-9728260D02*
X14543991Y-9709212D01*
X14543991Y-9709212D02*
X14543991Y-9537784D01*
X14724944Y-9728260D02*
X14705896Y-9737784D01*
X14705896Y-9737784D02*
X14667801Y-9737784D01*
X14667801Y-9737784D02*
X14648753Y-9728260D01*
X14648753Y-9728260D02*
X14639230Y-9709212D01*
X14639230Y-9709212D02*
X14639230Y-9633022D01*
X14639230Y-9633022D02*
X14648753Y-9613974D01*
X14648753Y-9613974D02*
X14667801Y-9604450D01*
X14667801Y-9604450D02*
X14705896Y-9604450D01*
X14705896Y-9604450D02*
X14724944Y-9613974D01*
X14724944Y-9613974D02*
X14734468Y-9633022D01*
X14734468Y-9633022D02*
X14734468Y-9652070D01*
X14734468Y-9652070D02*
X14639230Y-9671117D01*
X14810658Y-9728260D02*
X14829706Y-9737784D01*
X14829706Y-9737784D02*
X14867801Y-9737784D01*
X14867801Y-9737784D02*
X14886849Y-9728260D01*
X14886849Y-9728260D02*
X14896372Y-9709212D01*
X14896372Y-9709212D02*
X14896372Y-9699689D01*
X14896372Y-9699689D02*
X14886849Y-9680641D01*
X14886849Y-9680641D02*
X14867801Y-9671117D01*
X14867801Y-9671117D02*
X14839230Y-9671117D01*
X14839230Y-9671117D02*
X14820182Y-9661593D01*
X14820182Y-9661593D02*
X14810658Y-9642546D01*
X14810658Y-9642546D02*
X14810658Y-9633022D01*
X14810658Y-9633022D02*
X14820182Y-9613974D01*
X14820182Y-9613974D02*
X14839230Y-9604450D01*
X14839230Y-9604450D02*
X14867801Y-9604450D01*
X14867801Y-9604450D02*
X14886849Y-9613974D01*
X14963039Y-9813974D02*
X14972563Y-9804450D01*
X14972563Y-9804450D02*
X14991611Y-9775879D01*
X14991611Y-9775879D02*
X15001134Y-9756831D01*
X15001134Y-9756831D02*
X15010658Y-9728260D01*
X15010658Y-9728260D02*
X15020182Y-9680641D01*
X15020182Y-9680641D02*
X15020182Y-9642546D01*
X15020182Y-9642546D02*
X15010658Y-9594927D01*
X15010658Y-9594927D02*
X15001134Y-9566355D01*
X15001134Y-9566355D02*
X14991611Y-9547308D01*
X14991611Y-9547308D02*
X14972563Y-9518736D01*
X14972563Y-9518736D02*
X14963039Y-9509212D01*
D12*
X9997500Y-9910300D02*
G75*
G02*
X9947500Y-9910300I-25000J0D01*
G01*
X9947500Y-9910300D02*
G75*
G02*
X9997500Y-9910300I25000J0D01*
G01*
D11*
X10296372Y-9801784D02*
X10315420Y-9801784D01*
X10315420Y-9801784D02*
X10334467Y-9811308D01*
X10334467Y-9811308D02*
X10343991Y-9820831D01*
X10343991Y-9820831D02*
X10353515Y-9839879D01*
X10353515Y-9839879D02*
X10363039Y-9877974D01*
X10363039Y-9877974D02*
X10363039Y-9925593D01*
X10363039Y-9925593D02*
X10353515Y-9963689D01*
X10353515Y-9963689D02*
X10343991Y-9982736D01*
X10343991Y-9982736D02*
X10334467Y-9992260D01*
X10334467Y-9992260D02*
X10315420Y-10001784D01*
X10315420Y-10001784D02*
X10296372Y-10001784D01*
X10296372Y-10001784D02*
X10277324Y-9992260D01*
X10277324Y-9992260D02*
X10267801Y-9982736D01*
X10267801Y-9982736D02*
X10258277Y-9963689D01*
X10258277Y-9963689D02*
X10248753Y-9925593D01*
X10248753Y-9925593D02*
X10248753Y-9877974D01*
X10248753Y-9877974D02*
X10258277Y-9839879D01*
X10258277Y-9839879D02*
X10267801Y-9820831D01*
X10267801Y-9820831D02*
X10277324Y-9811308D01*
X10277324Y-9811308D02*
X10296372Y-9801784D01*
X10448753Y-9982736D02*
X10458277Y-9992260D01*
X10458277Y-9992260D02*
X10448753Y-10001784D01*
X10448753Y-10001784D02*
X10439229Y-9992260D01*
X10439229Y-9992260D02*
X10448753Y-9982736D01*
X10448753Y-9982736D02*
X10448753Y-10001784D01*
X10639229Y-9801784D02*
X10543991Y-9801784D01*
X10543991Y-9801784D02*
X10534467Y-9897022D01*
X10534467Y-9897022D02*
X10543991Y-9887498D01*
X10543991Y-9887498D02*
X10563039Y-9877974D01*
X10563039Y-9877974D02*
X10610658Y-9877974D01*
X10610658Y-9877974D02*
X10629705Y-9887498D01*
X10629705Y-9887498D02*
X10639229Y-9897022D01*
X10639229Y-9897022D02*
X10648753Y-9916070D01*
X10648753Y-9916070D02*
X10648753Y-9963689D01*
X10648753Y-9963689D02*
X10639229Y-9982736D01*
X10639229Y-9982736D02*
X10629705Y-9992260D01*
X10629705Y-9992260D02*
X10610658Y-10001784D01*
X10610658Y-10001784D02*
X10563039Y-10001784D01*
X10563039Y-10001784D02*
X10543991Y-9992260D01*
X10543991Y-9992260D02*
X10534467Y-9982736D01*
X10772563Y-9801784D02*
X10791610Y-9801784D01*
X10791610Y-9801784D02*
X10810658Y-9811308D01*
X10810658Y-9811308D02*
X10820182Y-9820831D01*
X10820182Y-9820831D02*
X10829705Y-9839879D01*
X10829705Y-9839879D02*
X10839229Y-9877974D01*
X10839229Y-9877974D02*
X10839229Y-9925593D01*
X10839229Y-9925593D02*
X10829705Y-9963689D01*
X10829705Y-9963689D02*
X10820182Y-9982736D01*
X10820182Y-9982736D02*
X10810658Y-9992260D01*
X10810658Y-9992260D02*
X10791610Y-10001784D01*
X10791610Y-10001784D02*
X10772563Y-10001784D01*
X10772563Y-10001784D02*
X10753515Y-9992260D01*
X10753515Y-9992260D02*
X10743991Y-9982736D01*
X10743991Y-9982736D02*
X10734467Y-9963689D01*
X10734467Y-9963689D02*
X10724944Y-9925593D01*
X10724944Y-9925593D02*
X10724944Y-9877974D01*
X10724944Y-9877974D02*
X10734467Y-9839879D01*
X10734467Y-9839879D02*
X10743991Y-9820831D01*
X10743991Y-9820831D02*
X10753515Y-9811308D01*
X10753515Y-9811308D02*
X10772563Y-9801784D01*
X10963039Y-9801784D02*
X10982086Y-9801784D01*
X10982086Y-9801784D02*
X11001134Y-9811308D01*
X11001134Y-9811308D02*
X11010658Y-9820831D01*
X11010658Y-9820831D02*
X11020182Y-9839879D01*
X11020182Y-9839879D02*
X11029705Y-9877974D01*
X11029705Y-9877974D02*
X11029705Y-9925593D01*
X11029705Y-9925593D02*
X11020182Y-9963689D01*
X11020182Y-9963689D02*
X11010658Y-9982736D01*
X11010658Y-9982736D02*
X11001134Y-9992260D01*
X11001134Y-9992260D02*
X10982086Y-10001784D01*
X10982086Y-10001784D02*
X10963039Y-10001784D01*
X10963039Y-10001784D02*
X10943991Y-9992260D01*
X10943991Y-9992260D02*
X10934467Y-9982736D01*
X10934467Y-9982736D02*
X10924944Y-9963689D01*
X10924944Y-9963689D02*
X10915420Y-9925593D01*
X10915420Y-9925593D02*
X10915420Y-9877974D01*
X10915420Y-9877974D02*
X10924944Y-9839879D01*
X10924944Y-9839879D02*
X10934467Y-9820831D01*
X10934467Y-9820831D02*
X10943991Y-9811308D01*
X10943991Y-9811308D02*
X10963039Y-9801784D01*
X11115420Y-10001784D02*
X11115420Y-9868450D01*
X11115420Y-9887498D02*
X11124944Y-9877974D01*
X11124944Y-9877974D02*
X11143991Y-9868450D01*
X11143991Y-9868450D02*
X11172563Y-9868450D01*
X11172563Y-9868450D02*
X11191610Y-9877974D01*
X11191610Y-9877974D02*
X11201134Y-9897022D01*
X11201134Y-9897022D02*
X11201134Y-10001784D01*
X11201134Y-9897022D02*
X11210658Y-9877974D01*
X11210658Y-9877974D02*
X11229705Y-9868450D01*
X11229705Y-9868450D02*
X11258277Y-9868450D01*
X11258277Y-9868450D02*
X11277324Y-9877974D01*
X11277324Y-9877974D02*
X11286848Y-9897022D01*
X11286848Y-9897022D02*
X11286848Y-10001784D01*
X11382086Y-10001784D02*
X11382086Y-9868450D01*
X11382086Y-9887498D02*
X11391610Y-9877974D01*
X11391610Y-9877974D02*
X11410658Y-9868450D01*
X11410658Y-9868450D02*
X11439229Y-9868450D01*
X11439229Y-9868450D02*
X11458277Y-9877974D01*
X11458277Y-9877974D02*
X11467801Y-9897022D01*
X11467801Y-9897022D02*
X11467801Y-10001784D01*
X11467801Y-9897022D02*
X11477324Y-9877974D01*
X11477324Y-9877974D02*
X11496372Y-9868450D01*
X11496372Y-9868450D02*
X11524943Y-9868450D01*
X11524943Y-9868450D02*
X11543991Y-9877974D01*
X11543991Y-9877974D02*
X11553515Y-9897022D01*
X11553515Y-9897022D02*
X11553515Y-10001784D01*
X11943991Y-9792260D02*
X11772563Y-10049403D01*
X12201134Y-9801784D02*
X12220182Y-9801784D01*
X12220182Y-9801784D02*
X12239229Y-9811308D01*
X12239229Y-9811308D02*
X12248753Y-9820831D01*
X12248753Y-9820831D02*
X12258277Y-9839879D01*
X12258277Y-9839879D02*
X12267801Y-9877974D01*
X12267801Y-9877974D02*
X12267801Y-9925593D01*
X12267801Y-9925593D02*
X12258277Y-9963689D01*
X12258277Y-9963689D02*
X12248753Y-9982736D01*
X12248753Y-9982736D02*
X12239229Y-9992260D01*
X12239229Y-9992260D02*
X12220182Y-10001784D01*
X12220182Y-10001784D02*
X12201134Y-10001784D01*
X12201134Y-10001784D02*
X12182086Y-9992260D01*
X12182086Y-9992260D02*
X12172563Y-9982736D01*
X12172563Y-9982736D02*
X12163039Y-9963689D01*
X12163039Y-9963689D02*
X12153515Y-9925593D01*
X12153515Y-9925593D02*
X12153515Y-9877974D01*
X12153515Y-9877974D02*
X12163039Y-9839879D01*
X12163039Y-9839879D02*
X12172563Y-9820831D01*
X12172563Y-9820831D02*
X12182086Y-9811308D01*
X12182086Y-9811308D02*
X12201134Y-9801784D01*
X12353515Y-9982736D02*
X12363039Y-9992260D01*
X12363039Y-9992260D02*
X12353515Y-10001784D01*
X12353515Y-10001784D02*
X12343991Y-9992260D01*
X12343991Y-9992260D02*
X12353515Y-9982736D01*
X12353515Y-9982736D02*
X12353515Y-10001784D01*
X12486848Y-9801784D02*
X12505896Y-9801784D01*
X12505896Y-9801784D02*
X12524944Y-9811308D01*
X12524944Y-9811308D02*
X12534467Y-9820831D01*
X12534467Y-9820831D02*
X12543991Y-9839879D01*
X12543991Y-9839879D02*
X12553515Y-9877974D01*
X12553515Y-9877974D02*
X12553515Y-9925593D01*
X12553515Y-9925593D02*
X12543991Y-9963689D01*
X12543991Y-9963689D02*
X12534467Y-9982736D01*
X12534467Y-9982736D02*
X12524944Y-9992260D01*
X12524944Y-9992260D02*
X12505896Y-10001784D01*
X12505896Y-10001784D02*
X12486848Y-10001784D01*
X12486848Y-10001784D02*
X12467801Y-9992260D01*
X12467801Y-9992260D02*
X12458277Y-9982736D01*
X12458277Y-9982736D02*
X12448753Y-9963689D01*
X12448753Y-9963689D02*
X12439229Y-9925593D01*
X12439229Y-9925593D02*
X12439229Y-9877974D01*
X12439229Y-9877974D02*
X12448753Y-9839879D01*
X12448753Y-9839879D02*
X12458277Y-9820831D01*
X12458277Y-9820831D02*
X12467801Y-9811308D01*
X12467801Y-9811308D02*
X12486848Y-9801784D01*
X12743991Y-10001784D02*
X12629706Y-10001784D01*
X12686848Y-10001784D02*
X12686848Y-9801784D01*
X12686848Y-9801784D02*
X12667801Y-9830355D01*
X12667801Y-9830355D02*
X12648753Y-9849403D01*
X12648753Y-9849403D02*
X12629706Y-9858927D01*
X12839229Y-10001784D02*
X12877325Y-10001784D01*
X12877325Y-10001784D02*
X12896372Y-9992260D01*
X12896372Y-9992260D02*
X12905896Y-9982736D01*
X12905896Y-9982736D02*
X12924944Y-9954165D01*
X12924944Y-9954165D02*
X12934467Y-9916070D01*
X12934467Y-9916070D02*
X12934467Y-9839879D01*
X12934467Y-9839879D02*
X12924944Y-9820831D01*
X12924944Y-9820831D02*
X12915420Y-9811308D01*
X12915420Y-9811308D02*
X12896372Y-9801784D01*
X12896372Y-9801784D02*
X12858277Y-9801784D01*
X12858277Y-9801784D02*
X12839229Y-9811308D01*
X12839229Y-9811308D02*
X12829706Y-9820831D01*
X12829706Y-9820831D02*
X12820182Y-9839879D01*
X12820182Y-9839879D02*
X12820182Y-9887498D01*
X12820182Y-9887498D02*
X12829706Y-9906546D01*
X12829706Y-9906546D02*
X12839229Y-9916070D01*
X12839229Y-9916070D02*
X12858277Y-9925593D01*
X12858277Y-9925593D02*
X12896372Y-9925593D01*
X12896372Y-9925593D02*
X12915420Y-9916070D01*
X12915420Y-9916070D02*
X12924944Y-9906546D01*
X12924944Y-9906546D02*
X12934467Y-9887498D01*
X13001134Y-9801784D02*
X13134467Y-9801784D01*
X13134467Y-9801784D02*
X13048753Y-10001784D01*
X13201134Y-9801784D02*
X13201134Y-9839879D01*
X13277325Y-9801784D02*
X13277325Y-9839879D01*
X13572563Y-10077974D02*
X13563039Y-10068450D01*
X13563039Y-10068450D02*
X13543991Y-10039879D01*
X13543991Y-10039879D02*
X13534468Y-10020831D01*
X13534468Y-10020831D02*
X13524944Y-9992260D01*
X13524944Y-9992260D02*
X13515420Y-9944641D01*
X13515420Y-9944641D02*
X13515420Y-9906546D01*
X13515420Y-9906546D02*
X13524944Y-9858927D01*
X13524944Y-9858927D02*
X13534468Y-9830355D01*
X13534468Y-9830355D02*
X13543991Y-9811308D01*
X13543991Y-9811308D02*
X13563039Y-9782736D01*
X13563039Y-9782736D02*
X13572563Y-9773212D01*
X13629706Y-9801784D02*
X13753515Y-9801784D01*
X13753515Y-9801784D02*
X13686848Y-9877974D01*
X13686848Y-9877974D02*
X13715420Y-9877974D01*
X13715420Y-9877974D02*
X13734468Y-9887498D01*
X13734468Y-9887498D02*
X13743991Y-9897022D01*
X13743991Y-9897022D02*
X13753515Y-9916070D01*
X13753515Y-9916070D02*
X13753515Y-9963689D01*
X13753515Y-9963689D02*
X13743991Y-9982736D01*
X13743991Y-9982736D02*
X13734468Y-9992260D01*
X13734468Y-9992260D02*
X13715420Y-10001784D01*
X13715420Y-10001784D02*
X13658277Y-10001784D01*
X13658277Y-10001784D02*
X13639229Y-9992260D01*
X13639229Y-9992260D02*
X13629706Y-9982736D01*
X13829706Y-9820831D02*
X13839229Y-9811308D01*
X13839229Y-9811308D02*
X13858277Y-9801784D01*
X13858277Y-9801784D02*
X13905896Y-9801784D01*
X13905896Y-9801784D02*
X13924944Y-9811308D01*
X13924944Y-9811308D02*
X13934468Y-9820831D01*
X13934468Y-9820831D02*
X13943991Y-9839879D01*
X13943991Y-9839879D02*
X13943991Y-9858927D01*
X13943991Y-9858927D02*
X13934468Y-9887498D01*
X13934468Y-9887498D02*
X13820182Y-10001784D01*
X13820182Y-10001784D02*
X13943991Y-10001784D01*
X14182087Y-10001784D02*
X14182087Y-9801784D01*
X14267801Y-10001784D02*
X14267801Y-9897022D01*
X14267801Y-9897022D02*
X14258277Y-9877974D01*
X14258277Y-9877974D02*
X14239230Y-9868450D01*
X14239230Y-9868450D02*
X14210658Y-9868450D01*
X14210658Y-9868450D02*
X14191610Y-9877974D01*
X14191610Y-9877974D02*
X14182087Y-9887498D01*
X14391610Y-10001784D02*
X14372563Y-9992260D01*
X14372563Y-9992260D02*
X14363039Y-9982736D01*
X14363039Y-9982736D02*
X14353515Y-9963689D01*
X14353515Y-9963689D02*
X14353515Y-9906546D01*
X14353515Y-9906546D02*
X14363039Y-9887498D01*
X14363039Y-9887498D02*
X14372563Y-9877974D01*
X14372563Y-9877974D02*
X14391610Y-9868450D01*
X14391610Y-9868450D02*
X14420182Y-9868450D01*
X14420182Y-9868450D02*
X14439230Y-9877974D01*
X14439230Y-9877974D02*
X14448753Y-9887498D01*
X14448753Y-9887498D02*
X14458277Y-9906546D01*
X14458277Y-9906546D02*
X14458277Y-9963689D01*
X14458277Y-9963689D02*
X14448753Y-9982736D01*
X14448753Y-9982736D02*
X14439230Y-9992260D01*
X14439230Y-9992260D02*
X14420182Y-10001784D01*
X14420182Y-10001784D02*
X14391610Y-10001784D01*
X14572563Y-10001784D02*
X14553515Y-9992260D01*
X14553515Y-9992260D02*
X14543991Y-9973212D01*
X14543991Y-9973212D02*
X14543991Y-9801784D01*
X14724944Y-9992260D02*
X14705896Y-10001784D01*
X14705896Y-10001784D02*
X14667801Y-10001784D01*
X14667801Y-10001784D02*
X14648753Y-9992260D01*
X14648753Y-9992260D02*
X14639230Y-9973212D01*
X14639230Y-9973212D02*
X14639230Y-9897022D01*
X14639230Y-9897022D02*
X14648753Y-9877974D01*
X14648753Y-9877974D02*
X14667801Y-9868450D01*
X14667801Y-9868450D02*
X14705896Y-9868450D01*
X14705896Y-9868450D02*
X14724944Y-9877974D01*
X14724944Y-9877974D02*
X14734468Y-9897022D01*
X14734468Y-9897022D02*
X14734468Y-9916070D01*
X14734468Y-9916070D02*
X14639230Y-9935117D01*
X14810658Y-9992260D02*
X14829706Y-10001784D01*
X14829706Y-10001784D02*
X14867801Y-10001784D01*
X14867801Y-10001784D02*
X14886849Y-9992260D01*
X14886849Y-9992260D02*
X14896372Y-9973212D01*
X14896372Y-9973212D02*
X14896372Y-9963689D01*
X14896372Y-9963689D02*
X14886849Y-9944641D01*
X14886849Y-9944641D02*
X14867801Y-9935117D01*
X14867801Y-9935117D02*
X14839230Y-9935117D01*
X14839230Y-9935117D02*
X14820182Y-9925593D01*
X14820182Y-9925593D02*
X14810658Y-9906546D01*
X14810658Y-9906546D02*
X14810658Y-9897022D01*
X14810658Y-9897022D02*
X14820182Y-9877974D01*
X14820182Y-9877974D02*
X14839230Y-9868450D01*
X14839230Y-9868450D02*
X14867801Y-9868450D01*
X14867801Y-9868450D02*
X14886849Y-9877974D01*
X14963039Y-10077974D02*
X14972563Y-10068450D01*
X14972563Y-10068450D02*
X14991611Y-10039879D01*
X14991611Y-10039879D02*
X15001134Y-10020831D01*
X15001134Y-10020831D02*
X15010658Y-9992260D01*
X15010658Y-9992260D02*
X15020182Y-9944641D01*
X15020182Y-9944641D02*
X15020182Y-9906546D01*
X15020182Y-9906546D02*
X15010658Y-9858927D01*
X15010658Y-9858927D02*
X15001134Y-9830355D01*
X15001134Y-9830355D02*
X14991611Y-9811308D01*
X14991611Y-9811308D02*
X14972563Y-9782736D01*
X14972563Y-9782736D02*
X14963039Y-9773212D01*
D12*
X9955000Y-10131800D02*
X9955000Y-10216800D01*
X9912500Y-10174300D02*
X9997500Y-10174300D01*
D11*
X10296372Y-10065784D02*
X10315420Y-10065784D01*
X10315420Y-10065784D02*
X10334467Y-10075308D01*
X10334467Y-10075308D02*
X10343991Y-10084831D01*
X10343991Y-10084831D02*
X10353515Y-10103879D01*
X10353515Y-10103879D02*
X10363039Y-10141974D01*
X10363039Y-10141974D02*
X10363039Y-10189593D01*
X10363039Y-10189593D02*
X10353515Y-10227689D01*
X10353515Y-10227689D02*
X10343991Y-10246736D01*
X10343991Y-10246736D02*
X10334467Y-10256260D01*
X10334467Y-10256260D02*
X10315420Y-10265784D01*
X10315420Y-10265784D02*
X10296372Y-10265784D01*
X10296372Y-10265784D02*
X10277324Y-10256260D01*
X10277324Y-10256260D02*
X10267801Y-10246736D01*
X10267801Y-10246736D02*
X10258277Y-10227689D01*
X10258277Y-10227689D02*
X10248753Y-10189593D01*
X10248753Y-10189593D02*
X10248753Y-10141974D01*
X10248753Y-10141974D02*
X10258277Y-10103879D01*
X10258277Y-10103879D02*
X10267801Y-10084831D01*
X10267801Y-10084831D02*
X10277324Y-10075308D01*
X10277324Y-10075308D02*
X10296372Y-10065784D01*
X10448753Y-10246736D02*
X10458277Y-10256260D01*
X10458277Y-10256260D02*
X10448753Y-10265784D01*
X10448753Y-10265784D02*
X10439229Y-10256260D01*
X10439229Y-10256260D02*
X10448753Y-10246736D01*
X10448753Y-10246736D02*
X10448753Y-10265784D01*
X10572563Y-10151498D02*
X10553515Y-10141974D01*
X10553515Y-10141974D02*
X10543991Y-10132450D01*
X10543991Y-10132450D02*
X10534467Y-10113403D01*
X10534467Y-10113403D02*
X10534467Y-10103879D01*
X10534467Y-10103879D02*
X10543991Y-10084831D01*
X10543991Y-10084831D02*
X10553515Y-10075308D01*
X10553515Y-10075308D02*
X10572563Y-10065784D01*
X10572563Y-10065784D02*
X10610658Y-10065784D01*
X10610658Y-10065784D02*
X10629705Y-10075308D01*
X10629705Y-10075308D02*
X10639229Y-10084831D01*
X10639229Y-10084831D02*
X10648753Y-10103879D01*
X10648753Y-10103879D02*
X10648753Y-10113403D01*
X10648753Y-10113403D02*
X10639229Y-10132450D01*
X10639229Y-10132450D02*
X10629705Y-10141974D01*
X10629705Y-10141974D02*
X10610658Y-10151498D01*
X10610658Y-10151498D02*
X10572563Y-10151498D01*
X10572563Y-10151498D02*
X10553515Y-10161022D01*
X10553515Y-10161022D02*
X10543991Y-10170546D01*
X10543991Y-10170546D02*
X10534467Y-10189593D01*
X10534467Y-10189593D02*
X10534467Y-10227689D01*
X10534467Y-10227689D02*
X10543991Y-10246736D01*
X10543991Y-10246736D02*
X10553515Y-10256260D01*
X10553515Y-10256260D02*
X10572563Y-10265784D01*
X10572563Y-10265784D02*
X10610658Y-10265784D01*
X10610658Y-10265784D02*
X10629705Y-10256260D01*
X10629705Y-10256260D02*
X10639229Y-10246736D01*
X10639229Y-10246736D02*
X10648753Y-10227689D01*
X10648753Y-10227689D02*
X10648753Y-10189593D01*
X10648753Y-10189593D02*
X10639229Y-10170546D01*
X10639229Y-10170546D02*
X10629705Y-10161022D01*
X10629705Y-10161022D02*
X10610658Y-10151498D01*
X10829705Y-10065784D02*
X10734467Y-10065784D01*
X10734467Y-10065784D02*
X10724944Y-10161022D01*
X10724944Y-10161022D02*
X10734467Y-10151498D01*
X10734467Y-10151498D02*
X10753515Y-10141974D01*
X10753515Y-10141974D02*
X10801134Y-10141974D01*
X10801134Y-10141974D02*
X10820182Y-10151498D01*
X10820182Y-10151498D02*
X10829705Y-10161022D01*
X10829705Y-10161022D02*
X10839229Y-10180070D01*
X10839229Y-10180070D02*
X10839229Y-10227689D01*
X10839229Y-10227689D02*
X10829705Y-10246736D01*
X10829705Y-10246736D02*
X10820182Y-10256260D01*
X10820182Y-10256260D02*
X10801134Y-10265784D01*
X10801134Y-10265784D02*
X10753515Y-10265784D01*
X10753515Y-10265784D02*
X10734467Y-10256260D01*
X10734467Y-10256260D02*
X10724944Y-10246736D01*
X10963039Y-10065784D02*
X10982086Y-10065784D01*
X10982086Y-10065784D02*
X11001134Y-10075308D01*
X11001134Y-10075308D02*
X11010658Y-10084831D01*
X11010658Y-10084831D02*
X11020182Y-10103879D01*
X11020182Y-10103879D02*
X11029705Y-10141974D01*
X11029705Y-10141974D02*
X11029705Y-10189593D01*
X11029705Y-10189593D02*
X11020182Y-10227689D01*
X11020182Y-10227689D02*
X11010658Y-10246736D01*
X11010658Y-10246736D02*
X11001134Y-10256260D01*
X11001134Y-10256260D02*
X10982086Y-10265784D01*
X10982086Y-10265784D02*
X10963039Y-10265784D01*
X10963039Y-10265784D02*
X10943991Y-10256260D01*
X10943991Y-10256260D02*
X10934467Y-10246736D01*
X10934467Y-10246736D02*
X10924944Y-10227689D01*
X10924944Y-10227689D02*
X10915420Y-10189593D01*
X10915420Y-10189593D02*
X10915420Y-10141974D01*
X10915420Y-10141974D02*
X10924944Y-10103879D01*
X10924944Y-10103879D02*
X10934467Y-10084831D01*
X10934467Y-10084831D02*
X10943991Y-10075308D01*
X10943991Y-10075308D02*
X10963039Y-10065784D01*
X11115420Y-10265784D02*
X11115420Y-10132450D01*
X11115420Y-10151498D02*
X11124944Y-10141974D01*
X11124944Y-10141974D02*
X11143991Y-10132450D01*
X11143991Y-10132450D02*
X11172563Y-10132450D01*
X11172563Y-10132450D02*
X11191610Y-10141974D01*
X11191610Y-10141974D02*
X11201134Y-10161022D01*
X11201134Y-10161022D02*
X11201134Y-10265784D01*
X11201134Y-10161022D02*
X11210658Y-10141974D01*
X11210658Y-10141974D02*
X11229705Y-10132450D01*
X11229705Y-10132450D02*
X11258277Y-10132450D01*
X11258277Y-10132450D02*
X11277324Y-10141974D01*
X11277324Y-10141974D02*
X11286848Y-10161022D01*
X11286848Y-10161022D02*
X11286848Y-10265784D01*
X11382086Y-10265784D02*
X11382086Y-10132450D01*
X11382086Y-10151498D02*
X11391610Y-10141974D01*
X11391610Y-10141974D02*
X11410658Y-10132450D01*
X11410658Y-10132450D02*
X11439229Y-10132450D01*
X11439229Y-10132450D02*
X11458277Y-10141974D01*
X11458277Y-10141974D02*
X11467801Y-10161022D01*
X11467801Y-10161022D02*
X11467801Y-10265784D01*
X11467801Y-10161022D02*
X11477324Y-10141974D01*
X11477324Y-10141974D02*
X11496372Y-10132450D01*
X11496372Y-10132450D02*
X11524943Y-10132450D01*
X11524943Y-10132450D02*
X11543991Y-10141974D01*
X11543991Y-10141974D02*
X11553515Y-10161022D01*
X11553515Y-10161022D02*
X11553515Y-10265784D01*
X11943991Y-10056260D02*
X11772563Y-10313403D01*
X12201134Y-10065784D02*
X12220182Y-10065784D01*
X12220182Y-10065784D02*
X12239229Y-10075308D01*
X12239229Y-10075308D02*
X12248753Y-10084831D01*
X12248753Y-10084831D02*
X12258277Y-10103879D01*
X12258277Y-10103879D02*
X12267801Y-10141974D01*
X12267801Y-10141974D02*
X12267801Y-10189593D01*
X12267801Y-10189593D02*
X12258277Y-10227689D01*
X12258277Y-10227689D02*
X12248753Y-10246736D01*
X12248753Y-10246736D02*
X12239229Y-10256260D01*
X12239229Y-10256260D02*
X12220182Y-10265784D01*
X12220182Y-10265784D02*
X12201134Y-10265784D01*
X12201134Y-10265784D02*
X12182086Y-10256260D01*
X12182086Y-10256260D02*
X12172563Y-10246736D01*
X12172563Y-10246736D02*
X12163039Y-10227689D01*
X12163039Y-10227689D02*
X12153515Y-10189593D01*
X12153515Y-10189593D02*
X12153515Y-10141974D01*
X12153515Y-10141974D02*
X12163039Y-10103879D01*
X12163039Y-10103879D02*
X12172563Y-10084831D01*
X12172563Y-10084831D02*
X12182086Y-10075308D01*
X12182086Y-10075308D02*
X12201134Y-10065784D01*
X12353515Y-10246736D02*
X12363039Y-10256260D01*
X12363039Y-10256260D02*
X12353515Y-10265784D01*
X12353515Y-10265784D02*
X12343991Y-10256260D01*
X12343991Y-10256260D02*
X12353515Y-10246736D01*
X12353515Y-10246736D02*
X12353515Y-10265784D01*
X12486848Y-10065784D02*
X12505896Y-10065784D01*
X12505896Y-10065784D02*
X12524944Y-10075308D01*
X12524944Y-10075308D02*
X12534467Y-10084831D01*
X12534467Y-10084831D02*
X12543991Y-10103879D01*
X12543991Y-10103879D02*
X12553515Y-10141974D01*
X12553515Y-10141974D02*
X12553515Y-10189593D01*
X12553515Y-10189593D02*
X12543991Y-10227689D01*
X12543991Y-10227689D02*
X12534467Y-10246736D01*
X12534467Y-10246736D02*
X12524944Y-10256260D01*
X12524944Y-10256260D02*
X12505896Y-10265784D01*
X12505896Y-10265784D02*
X12486848Y-10265784D01*
X12486848Y-10265784D02*
X12467801Y-10256260D01*
X12467801Y-10256260D02*
X12458277Y-10246736D01*
X12458277Y-10246736D02*
X12448753Y-10227689D01*
X12448753Y-10227689D02*
X12439229Y-10189593D01*
X12439229Y-10189593D02*
X12439229Y-10141974D01*
X12439229Y-10141974D02*
X12448753Y-10103879D01*
X12448753Y-10103879D02*
X12458277Y-10084831D01*
X12458277Y-10084831D02*
X12467801Y-10075308D01*
X12467801Y-10075308D02*
X12486848Y-10065784D01*
X12620182Y-10065784D02*
X12743991Y-10065784D01*
X12743991Y-10065784D02*
X12677325Y-10141974D01*
X12677325Y-10141974D02*
X12705896Y-10141974D01*
X12705896Y-10141974D02*
X12724944Y-10151498D01*
X12724944Y-10151498D02*
X12734467Y-10161022D01*
X12734467Y-10161022D02*
X12743991Y-10180070D01*
X12743991Y-10180070D02*
X12743991Y-10227689D01*
X12743991Y-10227689D02*
X12734467Y-10246736D01*
X12734467Y-10246736D02*
X12724944Y-10256260D01*
X12724944Y-10256260D02*
X12705896Y-10265784D01*
X12705896Y-10265784D02*
X12648753Y-10265784D01*
X12648753Y-10265784D02*
X12629706Y-10256260D01*
X12629706Y-10256260D02*
X12620182Y-10246736D01*
X12810658Y-10065784D02*
X12934467Y-10065784D01*
X12934467Y-10065784D02*
X12867801Y-10141974D01*
X12867801Y-10141974D02*
X12896372Y-10141974D01*
X12896372Y-10141974D02*
X12915420Y-10151498D01*
X12915420Y-10151498D02*
X12924944Y-10161022D01*
X12924944Y-10161022D02*
X12934467Y-10180070D01*
X12934467Y-10180070D02*
X12934467Y-10227689D01*
X12934467Y-10227689D02*
X12924944Y-10246736D01*
X12924944Y-10246736D02*
X12915420Y-10256260D01*
X12915420Y-10256260D02*
X12896372Y-10265784D01*
X12896372Y-10265784D02*
X12839229Y-10265784D01*
X12839229Y-10265784D02*
X12820182Y-10256260D01*
X12820182Y-10256260D02*
X12810658Y-10246736D01*
X13115420Y-10065784D02*
X13020182Y-10065784D01*
X13020182Y-10065784D02*
X13010658Y-10161022D01*
X13010658Y-10161022D02*
X13020182Y-10151498D01*
X13020182Y-10151498D02*
X13039229Y-10141974D01*
X13039229Y-10141974D02*
X13086848Y-10141974D01*
X13086848Y-10141974D02*
X13105896Y-10151498D01*
X13105896Y-10151498D02*
X13115420Y-10161022D01*
X13115420Y-10161022D02*
X13124944Y-10180070D01*
X13124944Y-10180070D02*
X13124944Y-10227689D01*
X13124944Y-10227689D02*
X13115420Y-10246736D01*
X13115420Y-10246736D02*
X13105896Y-10256260D01*
X13105896Y-10256260D02*
X13086848Y-10265784D01*
X13086848Y-10265784D02*
X13039229Y-10265784D01*
X13039229Y-10265784D02*
X13020182Y-10256260D01*
X13020182Y-10256260D02*
X13010658Y-10246736D01*
X13201134Y-10065784D02*
X13201134Y-10103879D01*
X13277325Y-10065784D02*
X13277325Y-10103879D01*
X13572563Y-10341974D02*
X13563039Y-10332450D01*
X13563039Y-10332450D02*
X13543991Y-10303879D01*
X13543991Y-10303879D02*
X13534468Y-10284831D01*
X13534468Y-10284831D02*
X13524944Y-10256260D01*
X13524944Y-10256260D02*
X13515420Y-10208641D01*
X13515420Y-10208641D02*
X13515420Y-10170546D01*
X13515420Y-10170546D02*
X13524944Y-10122927D01*
X13524944Y-10122927D02*
X13534468Y-10094355D01*
X13534468Y-10094355D02*
X13543991Y-10075308D01*
X13543991Y-10075308D02*
X13563039Y-10046736D01*
X13563039Y-10046736D02*
X13572563Y-10037212D01*
X13639229Y-10084831D02*
X13648753Y-10075308D01*
X13648753Y-10075308D02*
X13667801Y-10065784D01*
X13667801Y-10065784D02*
X13715420Y-10065784D01*
X13715420Y-10065784D02*
X13734468Y-10075308D01*
X13734468Y-10075308D02*
X13743991Y-10084831D01*
X13743991Y-10084831D02*
X13753515Y-10103879D01*
X13753515Y-10103879D02*
X13753515Y-10122927D01*
X13753515Y-10122927D02*
X13743991Y-10151498D01*
X13743991Y-10151498D02*
X13629706Y-10265784D01*
X13629706Y-10265784D02*
X13753515Y-10265784D01*
X13820182Y-10065784D02*
X13943991Y-10065784D01*
X13943991Y-10065784D02*
X13877325Y-10141974D01*
X13877325Y-10141974D02*
X13905896Y-10141974D01*
X13905896Y-10141974D02*
X13924944Y-10151498D01*
X13924944Y-10151498D02*
X13934468Y-10161022D01*
X13934468Y-10161022D02*
X13943991Y-10180070D01*
X13943991Y-10180070D02*
X13943991Y-10227689D01*
X13943991Y-10227689D02*
X13934468Y-10246736D01*
X13934468Y-10246736D02*
X13924944Y-10256260D01*
X13924944Y-10256260D02*
X13905896Y-10265784D01*
X13905896Y-10265784D02*
X13848753Y-10265784D01*
X13848753Y-10265784D02*
X13829706Y-10256260D01*
X13829706Y-10256260D02*
X13820182Y-10246736D01*
X14182087Y-10265784D02*
X14182087Y-10065784D01*
X14267801Y-10265784D02*
X14267801Y-10161022D01*
X14267801Y-10161022D02*
X14258277Y-10141974D01*
X14258277Y-10141974D02*
X14239230Y-10132450D01*
X14239230Y-10132450D02*
X14210658Y-10132450D01*
X14210658Y-10132450D02*
X14191610Y-10141974D01*
X14191610Y-10141974D02*
X14182087Y-10151498D01*
X14391610Y-10265784D02*
X14372563Y-10256260D01*
X14372563Y-10256260D02*
X14363039Y-10246736D01*
X14363039Y-10246736D02*
X14353515Y-10227689D01*
X14353515Y-10227689D02*
X14353515Y-10170546D01*
X14353515Y-10170546D02*
X14363039Y-10151498D01*
X14363039Y-10151498D02*
X14372563Y-10141974D01*
X14372563Y-10141974D02*
X14391610Y-10132450D01*
X14391610Y-10132450D02*
X14420182Y-10132450D01*
X14420182Y-10132450D02*
X14439230Y-10141974D01*
X14439230Y-10141974D02*
X14448753Y-10151498D01*
X14448753Y-10151498D02*
X14458277Y-10170546D01*
X14458277Y-10170546D02*
X14458277Y-10227689D01*
X14458277Y-10227689D02*
X14448753Y-10246736D01*
X14448753Y-10246736D02*
X14439230Y-10256260D01*
X14439230Y-10256260D02*
X14420182Y-10265784D01*
X14420182Y-10265784D02*
X14391610Y-10265784D01*
X14572563Y-10265784D02*
X14553515Y-10256260D01*
X14553515Y-10256260D02*
X14543991Y-10237212D01*
X14543991Y-10237212D02*
X14543991Y-10065784D01*
X14724944Y-10256260D02*
X14705896Y-10265784D01*
X14705896Y-10265784D02*
X14667801Y-10265784D01*
X14667801Y-10265784D02*
X14648753Y-10256260D01*
X14648753Y-10256260D02*
X14639230Y-10237212D01*
X14639230Y-10237212D02*
X14639230Y-10161022D01*
X14639230Y-10161022D02*
X14648753Y-10141974D01*
X14648753Y-10141974D02*
X14667801Y-10132450D01*
X14667801Y-10132450D02*
X14705896Y-10132450D01*
X14705896Y-10132450D02*
X14724944Y-10141974D01*
X14724944Y-10141974D02*
X14734468Y-10161022D01*
X14734468Y-10161022D02*
X14734468Y-10180070D01*
X14734468Y-10180070D02*
X14639230Y-10199117D01*
X14810658Y-10256260D02*
X14829706Y-10265784D01*
X14829706Y-10265784D02*
X14867801Y-10265784D01*
X14867801Y-10265784D02*
X14886849Y-10256260D01*
X14886849Y-10256260D02*
X14896372Y-10237212D01*
X14896372Y-10237212D02*
X14896372Y-10227689D01*
X14896372Y-10227689D02*
X14886849Y-10208641D01*
X14886849Y-10208641D02*
X14867801Y-10199117D01*
X14867801Y-10199117D02*
X14839230Y-10199117D01*
X14839230Y-10199117D02*
X14820182Y-10189593D01*
X14820182Y-10189593D02*
X14810658Y-10170546D01*
X14810658Y-10170546D02*
X14810658Y-10161022D01*
X14810658Y-10161022D02*
X14820182Y-10141974D01*
X14820182Y-10141974D02*
X14839230Y-10132450D01*
X14839230Y-10132450D02*
X14867801Y-10132450D01*
X14867801Y-10132450D02*
X14886849Y-10141974D01*
X14963039Y-10341974D02*
X14972563Y-10332450D01*
X14972563Y-10332450D02*
X14991611Y-10303879D01*
X14991611Y-10303879D02*
X15001134Y-10284831D01*
X15001134Y-10284831D02*
X15010658Y-10256260D01*
X15010658Y-10256260D02*
X15020182Y-10208641D01*
X15020182Y-10208641D02*
X15020182Y-10170546D01*
X15020182Y-10170546D02*
X15010658Y-10122927D01*
X15010658Y-10122927D02*
X15001134Y-10094355D01*
X15001134Y-10094355D02*
X14991611Y-10075308D01*
X14991611Y-10075308D02*
X14972563Y-10046736D01*
X14972563Y-10046736D02*
X14963039Y-10037212D01*
D12*
X9982856Y-10473656D02*
X9982856Y-10402944D01*
X9912144Y-10402944D01*
X9912144Y-10473656D01*
X9982856Y-10473656D01*
D11*
X10363039Y-10529784D02*
X10248753Y-10529784D01*
X10305896Y-10529784D02*
X10305896Y-10329784D01*
X10305896Y-10329784D02*
X10286848Y-10358355D01*
X10286848Y-10358355D02*
X10267801Y-10377403D01*
X10267801Y-10377403D02*
X10248753Y-10386927D01*
X10448753Y-10510736D02*
X10458277Y-10520260D01*
X10458277Y-10520260D02*
X10448753Y-10529784D01*
X10448753Y-10529784D02*
X10439229Y-10520260D01*
X10439229Y-10520260D02*
X10448753Y-10510736D01*
X10448753Y-10510736D02*
X10448753Y-10529784D01*
X10582086Y-10329784D02*
X10601134Y-10329784D01*
X10601134Y-10329784D02*
X10620182Y-10339308D01*
X10620182Y-10339308D02*
X10629705Y-10348831D01*
X10629705Y-10348831D02*
X10639229Y-10367879D01*
X10639229Y-10367879D02*
X10648753Y-10405974D01*
X10648753Y-10405974D02*
X10648753Y-10453593D01*
X10648753Y-10453593D02*
X10639229Y-10491689D01*
X10639229Y-10491689D02*
X10629705Y-10510736D01*
X10629705Y-10510736D02*
X10620182Y-10520260D01*
X10620182Y-10520260D02*
X10601134Y-10529784D01*
X10601134Y-10529784D02*
X10582086Y-10529784D01*
X10582086Y-10529784D02*
X10563039Y-10520260D01*
X10563039Y-10520260D02*
X10553515Y-10510736D01*
X10553515Y-10510736D02*
X10543991Y-10491689D01*
X10543991Y-10491689D02*
X10534467Y-10453593D01*
X10534467Y-10453593D02*
X10534467Y-10405974D01*
X10534467Y-10405974D02*
X10543991Y-10367879D01*
X10543991Y-10367879D02*
X10553515Y-10348831D01*
X10553515Y-10348831D02*
X10563039Y-10339308D01*
X10563039Y-10339308D02*
X10582086Y-10329784D01*
X10772563Y-10329784D02*
X10791610Y-10329784D01*
X10791610Y-10329784D02*
X10810658Y-10339308D01*
X10810658Y-10339308D02*
X10820182Y-10348831D01*
X10820182Y-10348831D02*
X10829705Y-10367879D01*
X10829705Y-10367879D02*
X10839229Y-10405974D01*
X10839229Y-10405974D02*
X10839229Y-10453593D01*
X10839229Y-10453593D02*
X10829705Y-10491689D01*
X10829705Y-10491689D02*
X10820182Y-10510736D01*
X10820182Y-10510736D02*
X10810658Y-10520260D01*
X10810658Y-10520260D02*
X10791610Y-10529784D01*
X10791610Y-10529784D02*
X10772563Y-10529784D01*
X10772563Y-10529784D02*
X10753515Y-10520260D01*
X10753515Y-10520260D02*
X10743991Y-10510736D01*
X10743991Y-10510736D02*
X10734467Y-10491689D01*
X10734467Y-10491689D02*
X10724944Y-10453593D01*
X10724944Y-10453593D02*
X10724944Y-10405974D01*
X10724944Y-10405974D02*
X10734467Y-10367879D01*
X10734467Y-10367879D02*
X10743991Y-10348831D01*
X10743991Y-10348831D02*
X10753515Y-10339308D01*
X10753515Y-10339308D02*
X10772563Y-10329784D01*
X10963039Y-10329784D02*
X10982086Y-10329784D01*
X10982086Y-10329784D02*
X11001134Y-10339308D01*
X11001134Y-10339308D02*
X11010658Y-10348831D01*
X11010658Y-10348831D02*
X11020182Y-10367879D01*
X11020182Y-10367879D02*
X11029705Y-10405974D01*
X11029705Y-10405974D02*
X11029705Y-10453593D01*
X11029705Y-10453593D02*
X11020182Y-10491689D01*
X11020182Y-10491689D02*
X11010658Y-10510736D01*
X11010658Y-10510736D02*
X11001134Y-10520260D01*
X11001134Y-10520260D02*
X10982086Y-10529784D01*
X10982086Y-10529784D02*
X10963039Y-10529784D01*
X10963039Y-10529784D02*
X10943991Y-10520260D01*
X10943991Y-10520260D02*
X10934467Y-10510736D01*
X10934467Y-10510736D02*
X10924944Y-10491689D01*
X10924944Y-10491689D02*
X10915420Y-10453593D01*
X10915420Y-10453593D02*
X10915420Y-10405974D01*
X10915420Y-10405974D02*
X10924944Y-10367879D01*
X10924944Y-10367879D02*
X10934467Y-10348831D01*
X10934467Y-10348831D02*
X10943991Y-10339308D01*
X10943991Y-10339308D02*
X10963039Y-10329784D01*
X11115420Y-10529784D02*
X11115420Y-10396450D01*
X11115420Y-10415498D02*
X11124944Y-10405974D01*
X11124944Y-10405974D02*
X11143991Y-10396450D01*
X11143991Y-10396450D02*
X11172563Y-10396450D01*
X11172563Y-10396450D02*
X11191610Y-10405974D01*
X11191610Y-10405974D02*
X11201134Y-10425022D01*
X11201134Y-10425022D02*
X11201134Y-10529784D01*
X11201134Y-10425022D02*
X11210658Y-10405974D01*
X11210658Y-10405974D02*
X11229705Y-10396450D01*
X11229705Y-10396450D02*
X11258277Y-10396450D01*
X11258277Y-10396450D02*
X11277324Y-10405974D01*
X11277324Y-10405974D02*
X11286848Y-10425022D01*
X11286848Y-10425022D02*
X11286848Y-10529784D01*
X11382086Y-10529784D02*
X11382086Y-10396450D01*
X11382086Y-10415498D02*
X11391610Y-10405974D01*
X11391610Y-10405974D02*
X11410658Y-10396450D01*
X11410658Y-10396450D02*
X11439229Y-10396450D01*
X11439229Y-10396450D02*
X11458277Y-10405974D01*
X11458277Y-10405974D02*
X11467801Y-10425022D01*
X11467801Y-10425022D02*
X11467801Y-10529784D01*
X11467801Y-10425022D02*
X11477324Y-10405974D01*
X11477324Y-10405974D02*
X11496372Y-10396450D01*
X11496372Y-10396450D02*
X11524943Y-10396450D01*
X11524943Y-10396450D02*
X11543991Y-10405974D01*
X11543991Y-10405974D02*
X11553515Y-10425022D01*
X11553515Y-10425022D02*
X11553515Y-10529784D01*
X11943991Y-10320260D02*
X11772563Y-10577403D01*
X12201134Y-10329784D02*
X12220182Y-10329784D01*
X12220182Y-10329784D02*
X12239229Y-10339308D01*
X12239229Y-10339308D02*
X12248753Y-10348831D01*
X12248753Y-10348831D02*
X12258277Y-10367879D01*
X12258277Y-10367879D02*
X12267801Y-10405974D01*
X12267801Y-10405974D02*
X12267801Y-10453593D01*
X12267801Y-10453593D02*
X12258277Y-10491689D01*
X12258277Y-10491689D02*
X12248753Y-10510736D01*
X12248753Y-10510736D02*
X12239229Y-10520260D01*
X12239229Y-10520260D02*
X12220182Y-10529784D01*
X12220182Y-10529784D02*
X12201134Y-10529784D01*
X12201134Y-10529784D02*
X12182086Y-10520260D01*
X12182086Y-10520260D02*
X12172563Y-10510736D01*
X12172563Y-10510736D02*
X12163039Y-10491689D01*
X12163039Y-10491689D02*
X12153515Y-10453593D01*
X12153515Y-10453593D02*
X12153515Y-10405974D01*
X12153515Y-10405974D02*
X12163039Y-10367879D01*
X12163039Y-10367879D02*
X12172563Y-10348831D01*
X12172563Y-10348831D02*
X12182086Y-10339308D01*
X12182086Y-10339308D02*
X12201134Y-10329784D01*
X12353515Y-10510736D02*
X12363039Y-10520260D01*
X12363039Y-10520260D02*
X12353515Y-10529784D01*
X12353515Y-10529784D02*
X12343991Y-10520260D01*
X12343991Y-10520260D02*
X12353515Y-10510736D01*
X12353515Y-10510736D02*
X12353515Y-10529784D01*
X12486848Y-10329784D02*
X12505896Y-10329784D01*
X12505896Y-10329784D02*
X12524944Y-10339308D01*
X12524944Y-10339308D02*
X12534467Y-10348831D01*
X12534467Y-10348831D02*
X12543991Y-10367879D01*
X12543991Y-10367879D02*
X12553515Y-10405974D01*
X12553515Y-10405974D02*
X12553515Y-10453593D01*
X12553515Y-10453593D02*
X12543991Y-10491689D01*
X12543991Y-10491689D02*
X12534467Y-10510736D01*
X12534467Y-10510736D02*
X12524944Y-10520260D01*
X12524944Y-10520260D02*
X12505896Y-10529784D01*
X12505896Y-10529784D02*
X12486848Y-10529784D01*
X12486848Y-10529784D02*
X12467801Y-10520260D01*
X12467801Y-10520260D02*
X12458277Y-10510736D01*
X12458277Y-10510736D02*
X12448753Y-10491689D01*
X12448753Y-10491689D02*
X12439229Y-10453593D01*
X12439229Y-10453593D02*
X12439229Y-10405974D01*
X12439229Y-10405974D02*
X12448753Y-10367879D01*
X12448753Y-10367879D02*
X12458277Y-10348831D01*
X12458277Y-10348831D02*
X12467801Y-10339308D01*
X12467801Y-10339308D02*
X12486848Y-10329784D01*
X12620182Y-10329784D02*
X12743991Y-10329784D01*
X12743991Y-10329784D02*
X12677325Y-10405974D01*
X12677325Y-10405974D02*
X12705896Y-10405974D01*
X12705896Y-10405974D02*
X12724944Y-10415498D01*
X12724944Y-10415498D02*
X12734467Y-10425022D01*
X12734467Y-10425022D02*
X12743991Y-10444070D01*
X12743991Y-10444070D02*
X12743991Y-10491689D01*
X12743991Y-10491689D02*
X12734467Y-10510736D01*
X12734467Y-10510736D02*
X12724944Y-10520260D01*
X12724944Y-10520260D02*
X12705896Y-10529784D01*
X12705896Y-10529784D02*
X12648753Y-10529784D01*
X12648753Y-10529784D02*
X12629706Y-10520260D01*
X12629706Y-10520260D02*
X12620182Y-10510736D01*
X12839229Y-10529784D02*
X12877325Y-10529784D01*
X12877325Y-10529784D02*
X12896372Y-10520260D01*
X12896372Y-10520260D02*
X12905896Y-10510736D01*
X12905896Y-10510736D02*
X12924944Y-10482165D01*
X12924944Y-10482165D02*
X12934467Y-10444070D01*
X12934467Y-10444070D02*
X12934467Y-10367879D01*
X12934467Y-10367879D02*
X12924944Y-10348831D01*
X12924944Y-10348831D02*
X12915420Y-10339308D01*
X12915420Y-10339308D02*
X12896372Y-10329784D01*
X12896372Y-10329784D02*
X12858277Y-10329784D01*
X12858277Y-10329784D02*
X12839229Y-10339308D01*
X12839229Y-10339308D02*
X12829706Y-10348831D01*
X12829706Y-10348831D02*
X12820182Y-10367879D01*
X12820182Y-10367879D02*
X12820182Y-10415498D01*
X12820182Y-10415498D02*
X12829706Y-10434546D01*
X12829706Y-10434546D02*
X12839229Y-10444070D01*
X12839229Y-10444070D02*
X12858277Y-10453593D01*
X12858277Y-10453593D02*
X12896372Y-10453593D01*
X12896372Y-10453593D02*
X12915420Y-10444070D01*
X12915420Y-10444070D02*
X12924944Y-10434546D01*
X12924944Y-10434546D02*
X12934467Y-10415498D01*
X13105896Y-10396450D02*
X13105896Y-10529784D01*
X13058277Y-10320260D02*
X13010658Y-10463117D01*
X13010658Y-10463117D02*
X13134467Y-10463117D01*
X13201134Y-10329784D02*
X13201134Y-10367879D01*
X13277325Y-10329784D02*
X13277325Y-10367879D01*
X13572563Y-10605974D02*
X13563039Y-10596450D01*
X13563039Y-10596450D02*
X13543991Y-10567879D01*
X13543991Y-10567879D02*
X13534468Y-10548831D01*
X13534468Y-10548831D02*
X13524944Y-10520260D01*
X13524944Y-10520260D02*
X13515420Y-10472641D01*
X13515420Y-10472641D02*
X13515420Y-10434546D01*
X13515420Y-10434546D02*
X13524944Y-10386927D01*
X13524944Y-10386927D02*
X13534468Y-10358355D01*
X13534468Y-10358355D02*
X13543991Y-10339308D01*
X13543991Y-10339308D02*
X13563039Y-10310736D01*
X13563039Y-10310736D02*
X13572563Y-10301212D01*
X13639229Y-10348831D02*
X13648753Y-10339308D01*
X13648753Y-10339308D02*
X13667801Y-10329784D01*
X13667801Y-10329784D02*
X13715420Y-10329784D01*
X13715420Y-10329784D02*
X13734468Y-10339308D01*
X13734468Y-10339308D02*
X13743991Y-10348831D01*
X13743991Y-10348831D02*
X13753515Y-10367879D01*
X13753515Y-10367879D02*
X13753515Y-10386927D01*
X13753515Y-10386927D02*
X13743991Y-10415498D01*
X13743991Y-10415498D02*
X13629706Y-10529784D01*
X13629706Y-10529784D02*
X13753515Y-10529784D01*
X13829706Y-10348831D02*
X13839229Y-10339308D01*
X13839229Y-10339308D02*
X13858277Y-10329784D01*
X13858277Y-10329784D02*
X13905896Y-10329784D01*
X13905896Y-10329784D02*
X13924944Y-10339308D01*
X13924944Y-10339308D02*
X13934468Y-10348831D01*
X13934468Y-10348831D02*
X13943991Y-10367879D01*
X13943991Y-10367879D02*
X13943991Y-10386927D01*
X13943991Y-10386927D02*
X13934468Y-10415498D01*
X13934468Y-10415498D02*
X13820182Y-10529784D01*
X13820182Y-10529784D02*
X13943991Y-10529784D01*
X14182087Y-10529784D02*
X14182087Y-10329784D01*
X14267801Y-10529784D02*
X14267801Y-10425022D01*
X14267801Y-10425022D02*
X14258277Y-10405974D01*
X14258277Y-10405974D02*
X14239230Y-10396450D01*
X14239230Y-10396450D02*
X14210658Y-10396450D01*
X14210658Y-10396450D02*
X14191610Y-10405974D01*
X14191610Y-10405974D02*
X14182087Y-10415498D01*
X14391610Y-10529784D02*
X14372563Y-10520260D01*
X14372563Y-10520260D02*
X14363039Y-10510736D01*
X14363039Y-10510736D02*
X14353515Y-10491689D01*
X14353515Y-10491689D02*
X14353515Y-10434546D01*
X14353515Y-10434546D02*
X14363039Y-10415498D01*
X14363039Y-10415498D02*
X14372563Y-10405974D01*
X14372563Y-10405974D02*
X14391610Y-10396450D01*
X14391610Y-10396450D02*
X14420182Y-10396450D01*
X14420182Y-10396450D02*
X14439230Y-10405974D01*
X14439230Y-10405974D02*
X14448753Y-10415498D01*
X14448753Y-10415498D02*
X14458277Y-10434546D01*
X14458277Y-10434546D02*
X14458277Y-10491689D01*
X14458277Y-10491689D02*
X14448753Y-10510736D01*
X14448753Y-10510736D02*
X14439230Y-10520260D01*
X14439230Y-10520260D02*
X14420182Y-10529784D01*
X14420182Y-10529784D02*
X14391610Y-10529784D01*
X14572563Y-10529784D02*
X14553515Y-10520260D01*
X14553515Y-10520260D02*
X14543991Y-10501212D01*
X14543991Y-10501212D02*
X14543991Y-10329784D01*
X14724944Y-10520260D02*
X14705896Y-10529784D01*
X14705896Y-10529784D02*
X14667801Y-10529784D01*
X14667801Y-10529784D02*
X14648753Y-10520260D01*
X14648753Y-10520260D02*
X14639230Y-10501212D01*
X14639230Y-10501212D02*
X14639230Y-10425022D01*
X14639230Y-10425022D02*
X14648753Y-10405974D01*
X14648753Y-10405974D02*
X14667801Y-10396450D01*
X14667801Y-10396450D02*
X14705896Y-10396450D01*
X14705896Y-10396450D02*
X14724944Y-10405974D01*
X14724944Y-10405974D02*
X14734468Y-10425022D01*
X14734468Y-10425022D02*
X14734468Y-10444070D01*
X14734468Y-10444070D02*
X14639230Y-10463117D01*
X14810658Y-10520260D02*
X14829706Y-10529784D01*
X14829706Y-10529784D02*
X14867801Y-10529784D01*
X14867801Y-10529784D02*
X14886849Y-10520260D01*
X14886849Y-10520260D02*
X14896372Y-10501212D01*
X14896372Y-10501212D02*
X14896372Y-10491689D01*
X14896372Y-10491689D02*
X14886849Y-10472641D01*
X14886849Y-10472641D02*
X14867801Y-10463117D01*
X14867801Y-10463117D02*
X14839230Y-10463117D01*
X14839230Y-10463117D02*
X14820182Y-10453593D01*
X14820182Y-10453593D02*
X14810658Y-10434546D01*
X14810658Y-10434546D02*
X14810658Y-10425022D01*
X14810658Y-10425022D02*
X14820182Y-10405974D01*
X14820182Y-10405974D02*
X14839230Y-10396450D01*
X14839230Y-10396450D02*
X14867801Y-10396450D01*
X14867801Y-10396450D02*
X14886849Y-10405974D01*
X14963039Y-10605974D02*
X14972563Y-10596450D01*
X14972563Y-10596450D02*
X14991611Y-10567879D01*
X14991611Y-10567879D02*
X15001134Y-10548831D01*
X15001134Y-10548831D02*
X15010658Y-10520260D01*
X15010658Y-10520260D02*
X15020182Y-10472641D01*
X15020182Y-10472641D02*
X15020182Y-10434546D01*
X15020182Y-10434546D02*
X15010658Y-10386927D01*
X15010658Y-10386927D02*
X15001134Y-10358355D01*
X15001134Y-10358355D02*
X14991611Y-10339308D01*
X14991611Y-10339308D02*
X14972563Y-10310736D01*
X14972563Y-10310736D02*
X14963039Y-10301212D01*
X9897500Y-10802300D02*
X9997500Y-10702300D01*
X9897500Y-10602300D01*
X9797500Y-10702300D01*
X9897500Y-10802300D01*
X10239229Y-10593784D02*
X10363039Y-10593784D01*
X10363039Y-10593784D02*
X10296372Y-10669974D01*
X10296372Y-10669974D02*
X10324944Y-10669974D01*
X10324944Y-10669974D02*
X10343991Y-10679498D01*
X10343991Y-10679498D02*
X10353515Y-10689022D01*
X10353515Y-10689022D02*
X10363039Y-10708070D01*
X10363039Y-10708070D02*
X10363039Y-10755689D01*
X10363039Y-10755689D02*
X10353515Y-10774736D01*
X10353515Y-10774736D02*
X10343991Y-10784260D01*
X10343991Y-10784260D02*
X10324944Y-10793784D01*
X10324944Y-10793784D02*
X10267801Y-10793784D01*
X10267801Y-10793784D02*
X10248753Y-10784260D01*
X10248753Y-10784260D02*
X10239229Y-10774736D01*
X10448753Y-10774736D02*
X10458277Y-10784260D01*
X10458277Y-10784260D02*
X10448753Y-10793784D01*
X10448753Y-10793784D02*
X10439229Y-10784260D01*
X10439229Y-10784260D02*
X10448753Y-10774736D01*
X10448753Y-10774736D02*
X10448753Y-10793784D01*
X10534467Y-10612831D02*
X10543991Y-10603308D01*
X10543991Y-10603308D02*
X10563039Y-10593784D01*
X10563039Y-10593784D02*
X10610658Y-10593784D01*
X10610658Y-10593784D02*
X10629705Y-10603308D01*
X10629705Y-10603308D02*
X10639229Y-10612831D01*
X10639229Y-10612831D02*
X10648753Y-10631879D01*
X10648753Y-10631879D02*
X10648753Y-10650927D01*
X10648753Y-10650927D02*
X10639229Y-10679498D01*
X10639229Y-10679498D02*
X10524944Y-10793784D01*
X10524944Y-10793784D02*
X10648753Y-10793784D01*
X10772563Y-10593784D02*
X10791610Y-10593784D01*
X10791610Y-10593784D02*
X10810658Y-10603308D01*
X10810658Y-10603308D02*
X10820182Y-10612831D01*
X10820182Y-10612831D02*
X10829705Y-10631879D01*
X10829705Y-10631879D02*
X10839229Y-10669974D01*
X10839229Y-10669974D02*
X10839229Y-10717593D01*
X10839229Y-10717593D02*
X10829705Y-10755689D01*
X10829705Y-10755689D02*
X10820182Y-10774736D01*
X10820182Y-10774736D02*
X10810658Y-10784260D01*
X10810658Y-10784260D02*
X10791610Y-10793784D01*
X10791610Y-10793784D02*
X10772563Y-10793784D01*
X10772563Y-10793784D02*
X10753515Y-10784260D01*
X10753515Y-10784260D02*
X10743991Y-10774736D01*
X10743991Y-10774736D02*
X10734467Y-10755689D01*
X10734467Y-10755689D02*
X10724944Y-10717593D01*
X10724944Y-10717593D02*
X10724944Y-10669974D01*
X10724944Y-10669974D02*
X10734467Y-10631879D01*
X10734467Y-10631879D02*
X10743991Y-10612831D01*
X10743991Y-10612831D02*
X10753515Y-10603308D01*
X10753515Y-10603308D02*
X10772563Y-10593784D01*
X10963039Y-10593784D02*
X10982086Y-10593784D01*
X10982086Y-10593784D02*
X11001134Y-10603308D01*
X11001134Y-10603308D02*
X11010658Y-10612831D01*
X11010658Y-10612831D02*
X11020182Y-10631879D01*
X11020182Y-10631879D02*
X11029705Y-10669974D01*
X11029705Y-10669974D02*
X11029705Y-10717593D01*
X11029705Y-10717593D02*
X11020182Y-10755689D01*
X11020182Y-10755689D02*
X11010658Y-10774736D01*
X11010658Y-10774736D02*
X11001134Y-10784260D01*
X11001134Y-10784260D02*
X10982086Y-10793784D01*
X10982086Y-10793784D02*
X10963039Y-10793784D01*
X10963039Y-10793784D02*
X10943991Y-10784260D01*
X10943991Y-10784260D02*
X10934467Y-10774736D01*
X10934467Y-10774736D02*
X10924944Y-10755689D01*
X10924944Y-10755689D02*
X10915420Y-10717593D01*
X10915420Y-10717593D02*
X10915420Y-10669974D01*
X10915420Y-10669974D02*
X10924944Y-10631879D01*
X10924944Y-10631879D02*
X10934467Y-10612831D01*
X10934467Y-10612831D02*
X10943991Y-10603308D01*
X10943991Y-10603308D02*
X10963039Y-10593784D01*
X11115420Y-10793784D02*
X11115420Y-10660450D01*
X11115420Y-10679498D02*
X11124944Y-10669974D01*
X11124944Y-10669974D02*
X11143991Y-10660450D01*
X11143991Y-10660450D02*
X11172563Y-10660450D01*
X11172563Y-10660450D02*
X11191610Y-10669974D01*
X11191610Y-10669974D02*
X11201134Y-10689022D01*
X11201134Y-10689022D02*
X11201134Y-10793784D01*
X11201134Y-10689022D02*
X11210658Y-10669974D01*
X11210658Y-10669974D02*
X11229705Y-10660450D01*
X11229705Y-10660450D02*
X11258277Y-10660450D01*
X11258277Y-10660450D02*
X11277324Y-10669974D01*
X11277324Y-10669974D02*
X11286848Y-10689022D01*
X11286848Y-10689022D02*
X11286848Y-10793784D01*
X11382086Y-10793784D02*
X11382086Y-10660450D01*
X11382086Y-10679498D02*
X11391610Y-10669974D01*
X11391610Y-10669974D02*
X11410658Y-10660450D01*
X11410658Y-10660450D02*
X11439229Y-10660450D01*
X11439229Y-10660450D02*
X11458277Y-10669974D01*
X11458277Y-10669974D02*
X11467801Y-10689022D01*
X11467801Y-10689022D02*
X11467801Y-10793784D01*
X11467801Y-10689022D02*
X11477324Y-10669974D01*
X11477324Y-10669974D02*
X11496372Y-10660450D01*
X11496372Y-10660450D02*
X11524943Y-10660450D01*
X11524943Y-10660450D02*
X11543991Y-10669974D01*
X11543991Y-10669974D02*
X11553515Y-10689022D01*
X11553515Y-10689022D02*
X11553515Y-10793784D01*
X11943991Y-10584260D02*
X11772563Y-10841403D01*
X12201134Y-10593784D02*
X12220182Y-10593784D01*
X12220182Y-10593784D02*
X12239229Y-10603308D01*
X12239229Y-10603308D02*
X12248753Y-10612831D01*
X12248753Y-10612831D02*
X12258277Y-10631879D01*
X12258277Y-10631879D02*
X12267801Y-10669974D01*
X12267801Y-10669974D02*
X12267801Y-10717593D01*
X12267801Y-10717593D02*
X12258277Y-10755689D01*
X12258277Y-10755689D02*
X12248753Y-10774736D01*
X12248753Y-10774736D02*
X12239229Y-10784260D01*
X12239229Y-10784260D02*
X12220182Y-10793784D01*
X12220182Y-10793784D02*
X12201134Y-10793784D01*
X12201134Y-10793784D02*
X12182086Y-10784260D01*
X12182086Y-10784260D02*
X12172563Y-10774736D01*
X12172563Y-10774736D02*
X12163039Y-10755689D01*
X12163039Y-10755689D02*
X12153515Y-10717593D01*
X12153515Y-10717593D02*
X12153515Y-10669974D01*
X12153515Y-10669974D02*
X12163039Y-10631879D01*
X12163039Y-10631879D02*
X12172563Y-10612831D01*
X12172563Y-10612831D02*
X12182086Y-10603308D01*
X12182086Y-10603308D02*
X12201134Y-10593784D01*
X12353515Y-10774736D02*
X12363039Y-10784260D01*
X12363039Y-10784260D02*
X12353515Y-10793784D01*
X12353515Y-10793784D02*
X12343991Y-10784260D01*
X12343991Y-10784260D02*
X12353515Y-10774736D01*
X12353515Y-10774736D02*
X12353515Y-10793784D01*
X12553515Y-10793784D02*
X12439229Y-10793784D01*
X12496372Y-10793784D02*
X12496372Y-10593784D01*
X12496372Y-10593784D02*
X12477325Y-10622355D01*
X12477325Y-10622355D02*
X12458277Y-10641403D01*
X12458277Y-10641403D02*
X12439229Y-10650927D01*
X12629706Y-10612831D02*
X12639229Y-10603308D01*
X12639229Y-10603308D02*
X12658277Y-10593784D01*
X12658277Y-10593784D02*
X12705896Y-10593784D01*
X12705896Y-10593784D02*
X12724944Y-10603308D01*
X12724944Y-10603308D02*
X12734467Y-10612831D01*
X12734467Y-10612831D02*
X12743991Y-10631879D01*
X12743991Y-10631879D02*
X12743991Y-10650927D01*
X12743991Y-10650927D02*
X12734467Y-10679498D01*
X12734467Y-10679498D02*
X12620182Y-10793784D01*
X12620182Y-10793784D02*
X12743991Y-10793784D01*
X12915420Y-10593784D02*
X12877325Y-10593784D01*
X12877325Y-10593784D02*
X12858277Y-10603308D01*
X12858277Y-10603308D02*
X12848753Y-10612831D01*
X12848753Y-10612831D02*
X12829706Y-10641403D01*
X12829706Y-10641403D02*
X12820182Y-10679498D01*
X12820182Y-10679498D02*
X12820182Y-10755689D01*
X12820182Y-10755689D02*
X12829706Y-10774736D01*
X12829706Y-10774736D02*
X12839229Y-10784260D01*
X12839229Y-10784260D02*
X12858277Y-10793784D01*
X12858277Y-10793784D02*
X12896372Y-10793784D01*
X12896372Y-10793784D02*
X12915420Y-10784260D01*
X12915420Y-10784260D02*
X12924944Y-10774736D01*
X12924944Y-10774736D02*
X12934467Y-10755689D01*
X12934467Y-10755689D02*
X12934467Y-10708070D01*
X12934467Y-10708070D02*
X12924944Y-10689022D01*
X12924944Y-10689022D02*
X12915420Y-10679498D01*
X12915420Y-10679498D02*
X12896372Y-10669974D01*
X12896372Y-10669974D02*
X12858277Y-10669974D01*
X12858277Y-10669974D02*
X12839229Y-10679498D01*
X12839229Y-10679498D02*
X12829706Y-10689022D01*
X12829706Y-10689022D02*
X12820182Y-10708070D01*
X13058277Y-10593784D02*
X13077325Y-10593784D01*
X13077325Y-10593784D02*
X13096372Y-10603308D01*
X13096372Y-10603308D02*
X13105896Y-10612831D01*
X13105896Y-10612831D02*
X13115420Y-10631879D01*
X13115420Y-10631879D02*
X13124944Y-10669974D01*
X13124944Y-10669974D02*
X13124944Y-10717593D01*
X13124944Y-10717593D02*
X13115420Y-10755689D01*
X13115420Y-10755689D02*
X13105896Y-10774736D01*
X13105896Y-10774736D02*
X13096372Y-10784260D01*
X13096372Y-10784260D02*
X13077325Y-10793784D01*
X13077325Y-10793784D02*
X13058277Y-10793784D01*
X13058277Y-10793784D02*
X13039229Y-10784260D01*
X13039229Y-10784260D02*
X13029706Y-10774736D01*
X13029706Y-10774736D02*
X13020182Y-10755689D01*
X13020182Y-10755689D02*
X13010658Y-10717593D01*
X13010658Y-10717593D02*
X13010658Y-10669974D01*
X13010658Y-10669974D02*
X13020182Y-10631879D01*
X13020182Y-10631879D02*
X13029706Y-10612831D01*
X13029706Y-10612831D02*
X13039229Y-10603308D01*
X13039229Y-10603308D02*
X13058277Y-10593784D01*
X13201134Y-10593784D02*
X13201134Y-10631879D01*
X13277325Y-10593784D02*
X13277325Y-10631879D01*
X13572563Y-10869974D02*
X13563039Y-10860450D01*
X13563039Y-10860450D02*
X13543991Y-10831879D01*
X13543991Y-10831879D02*
X13534468Y-10812831D01*
X13534468Y-10812831D02*
X13524944Y-10784260D01*
X13524944Y-10784260D02*
X13515420Y-10736641D01*
X13515420Y-10736641D02*
X13515420Y-10698546D01*
X13515420Y-10698546D02*
X13524944Y-10650927D01*
X13524944Y-10650927D02*
X13534468Y-10622355D01*
X13534468Y-10622355D02*
X13543991Y-10603308D01*
X13543991Y-10603308D02*
X13563039Y-10574736D01*
X13563039Y-10574736D02*
X13572563Y-10565212D01*
X13734468Y-10660450D02*
X13734468Y-10793784D01*
X13686848Y-10584260D02*
X13639229Y-10727117D01*
X13639229Y-10727117D02*
X13763039Y-10727117D01*
X13991610Y-10793784D02*
X13991610Y-10593784D01*
X14077325Y-10793784D02*
X14077325Y-10689022D01*
X14077325Y-10689022D02*
X14067801Y-10669974D01*
X14067801Y-10669974D02*
X14048753Y-10660450D01*
X14048753Y-10660450D02*
X14020182Y-10660450D01*
X14020182Y-10660450D02*
X14001134Y-10669974D01*
X14001134Y-10669974D02*
X13991610Y-10679498D01*
X14201134Y-10793784D02*
X14182087Y-10784260D01*
X14182087Y-10784260D02*
X14172563Y-10774736D01*
X14172563Y-10774736D02*
X14163039Y-10755689D01*
X14163039Y-10755689D02*
X14163039Y-10698546D01*
X14163039Y-10698546D02*
X14172563Y-10679498D01*
X14172563Y-10679498D02*
X14182087Y-10669974D01*
X14182087Y-10669974D02*
X14201134Y-10660450D01*
X14201134Y-10660450D02*
X14229706Y-10660450D01*
X14229706Y-10660450D02*
X14248753Y-10669974D01*
X14248753Y-10669974D02*
X14258277Y-10679498D01*
X14258277Y-10679498D02*
X14267801Y-10698546D01*
X14267801Y-10698546D02*
X14267801Y-10755689D01*
X14267801Y-10755689D02*
X14258277Y-10774736D01*
X14258277Y-10774736D02*
X14248753Y-10784260D01*
X14248753Y-10784260D02*
X14229706Y-10793784D01*
X14229706Y-10793784D02*
X14201134Y-10793784D01*
X14382087Y-10793784D02*
X14363039Y-10784260D01*
X14363039Y-10784260D02*
X14353515Y-10765212D01*
X14353515Y-10765212D02*
X14353515Y-10593784D01*
X14534468Y-10784260D02*
X14515420Y-10793784D01*
X14515420Y-10793784D02*
X14477325Y-10793784D01*
X14477325Y-10793784D02*
X14458277Y-10784260D01*
X14458277Y-10784260D02*
X14448753Y-10765212D01*
X14448753Y-10765212D02*
X14448753Y-10689022D01*
X14448753Y-10689022D02*
X14458277Y-10669974D01*
X14458277Y-10669974D02*
X14477325Y-10660450D01*
X14477325Y-10660450D02*
X14515420Y-10660450D01*
X14515420Y-10660450D02*
X14534468Y-10669974D01*
X14534468Y-10669974D02*
X14543991Y-10689022D01*
X14543991Y-10689022D02*
X14543991Y-10708070D01*
X14543991Y-10708070D02*
X14448753Y-10727117D01*
X14620182Y-10784260D02*
X14639230Y-10793784D01*
X14639230Y-10793784D02*
X14677325Y-10793784D01*
X14677325Y-10793784D02*
X14696372Y-10784260D01*
X14696372Y-10784260D02*
X14705896Y-10765212D01*
X14705896Y-10765212D02*
X14705896Y-10755689D01*
X14705896Y-10755689D02*
X14696372Y-10736641D01*
X14696372Y-10736641D02*
X14677325Y-10727117D01*
X14677325Y-10727117D02*
X14648753Y-10727117D01*
X14648753Y-10727117D02*
X14629706Y-10717593D01*
X14629706Y-10717593D02*
X14620182Y-10698546D01*
X14620182Y-10698546D02*
X14620182Y-10689022D01*
X14620182Y-10689022D02*
X14629706Y-10669974D01*
X14629706Y-10669974D02*
X14648753Y-10660450D01*
X14648753Y-10660450D02*
X14677325Y-10660450D01*
X14677325Y-10660450D02*
X14696372Y-10669974D01*
X14772563Y-10869974D02*
X14782087Y-10860450D01*
X14782087Y-10860450D02*
X14801134Y-10831879D01*
X14801134Y-10831879D02*
X14810658Y-10812831D01*
X14810658Y-10812831D02*
X14820182Y-10784260D01*
X14820182Y-10784260D02*
X14829706Y-10736641D01*
X14829706Y-10736641D02*
X14829706Y-10698546D01*
X14829706Y-10698546D02*
X14820182Y-10650927D01*
X14820182Y-10650927D02*
X14810658Y-10622355D01*
X14810658Y-10622355D02*
X14801134Y-10603308D01*
X14801134Y-10603308D02*
X14782087Y-10574736D01*
X14782087Y-10574736D02*
X14772563Y-10565212D01*
M02*
