%TF.GenerationSoftware,KiCad,Pcbnew,8.0.5*%
%TF.CreationDate,2024-09-18T02:56:45+09:00*%
%TF.ProjectId,MIDI_Pedal,4d494449-5f50-4656-9461-6c2e6b696361,rev?*%
%TF.SameCoordinates,Original*%
%TF.FileFunction,Soldermask,Bot*%
%TF.FilePolarity,Negative*%
%FSLAX46Y46*%
G04 Gerber Fmt 4.6, Leading zero omitted, Abs format (unit mm)*
G04 Created by KiCad (PCBNEW 8.0.5) date 2024-09-18 02:56:45*
%MOMM*%
%LPD*%
G01*
G04 APERTURE LIST*
G04 Aperture macros list*
%AMRoundRect*
0 Rectangle with rounded corners*
0 $1 Rounding radius*
0 $2 $3 $4 $5 $6 $7 $8 $9 X,Y pos of 4 corners*
0 Add a 4 corners polygon primitive as box body*
4,1,4,$2,$3,$4,$5,$6,$7,$8,$9,$2,$3,0*
0 Add four circle primitives for the rounded corners*
1,1,$1+$1,$2,$3*
1,1,$1+$1,$4,$5*
1,1,$1+$1,$6,$7*
1,1,$1+$1,$8,$9*
0 Add four rect primitives between the rounded corners*
20,1,$1+$1,$2,$3,$4,$5,0*
20,1,$1+$1,$4,$5,$6,$7,0*
20,1,$1+$1,$6,$7,$8,$9,0*
20,1,$1+$1,$8,$9,$2,$3,0*%
G04 Aperture macros list end*
%ADD10C,0.800000*%
%ADD11C,6.400000*%
%ADD12O,4.000000X1.500000*%
%ADD13O,1.500000X4.000000*%
%ADD14RoundRect,0.250000X-1.750000X-0.500000X1.750000X-0.500000X1.750000X0.500000X-1.750000X0.500000X0*%
%ADD15R,1.700000X1.700000*%
%ADD16O,1.700000X1.700000*%
G04 APERTURE END LIST*
D10*
%TO.C,H4*%
X142600000Y-85000000D03*
X143302944Y-83302944D03*
X143302944Y-86697056D03*
X145000000Y-82600000D03*
D11*
X145000000Y-85000000D03*
D10*
X145000000Y-87400000D03*
X146697056Y-83302944D03*
X146697056Y-86697056D03*
X147400000Y-85000000D03*
%TD*%
%TO.C,H3*%
X142600000Y-56900000D03*
X143302944Y-55202944D03*
X143302944Y-58597056D03*
X145000000Y-54500000D03*
D11*
X145000000Y-56900000D03*
D10*
X145000000Y-59300000D03*
X146697056Y-55202944D03*
X146697056Y-58597056D03*
X147400000Y-56900000D03*
%TD*%
%TO.C,H2*%
X102600000Y-85000000D03*
X103302944Y-83302944D03*
X103302944Y-86697056D03*
X105000000Y-82600000D03*
D11*
X105000000Y-85000000D03*
D10*
X105000000Y-87400000D03*
X106697056Y-83302944D03*
X106697056Y-86697056D03*
X107400000Y-85000000D03*
%TD*%
%TO.C,H1*%
X102600000Y-56900000D03*
X103302944Y-55202944D03*
X103302944Y-58597056D03*
X105000000Y-54500000D03*
D11*
X105000000Y-56900000D03*
D10*
X105000000Y-59300000D03*
X106697056Y-55202944D03*
X106697056Y-58597056D03*
X107400000Y-56900000D03*
%TD*%
D12*
%TO.C,U1*%
X133920000Y-51540000D03*
X133920000Y-54080000D03*
X133920000Y-56620000D03*
X133920000Y-59160000D03*
X133920000Y-61700000D03*
X133920000Y-64240000D03*
X133920000Y-66780000D03*
X133920000Y-69320000D03*
X133920000Y-71860000D03*
D13*
X130080000Y-73160000D03*
X127540000Y-73160000D03*
X125000000Y-73160000D03*
X122460000Y-73160000D03*
X119920000Y-73160000D03*
D12*
X116130000Y-71860000D03*
X116130000Y-69320000D03*
X116130000Y-66780000D03*
X116130000Y-64240000D03*
X116130000Y-61700000D03*
X116130000Y-59160000D03*
X116130000Y-56620000D03*
D14*
X116130000Y-54080000D03*
D12*
X116080000Y-51540000D03*
%TD*%
D15*
%TO.C,J5*%
X115668000Y-77978000D03*
D16*
X118208000Y-77978000D03*
%TD*%
D15*
%TO.C,J7*%
X140208000Y-77978000D03*
D16*
X142748000Y-77978000D03*
X145288000Y-77978000D03*
%TD*%
D15*
%TO.C,J1*%
X139710000Y-72390000D03*
D16*
X142250000Y-72390000D03*
X144790000Y-72390000D03*
X147330000Y-72390000D03*
%TD*%
D15*
%TO.C,J6*%
X126688000Y-77978000D03*
D16*
X129228000Y-77978000D03*
X131768000Y-77978000D03*
%TD*%
D15*
%TO.C,J2*%
X108966000Y-62992000D03*
D16*
X108966000Y-65532000D03*
X108966000Y-68072000D03*
X108966000Y-70612000D03*
X108966000Y-73152000D03*
%TD*%
D15*
%TO.C,J4*%
X104648000Y-77978000D03*
D16*
X107188000Y-77978000D03*
%TD*%
D15*
%TO.C,J3*%
X147066000Y-62738000D03*
D16*
X147066000Y-65278000D03*
X147066000Y-67818000D03*
%TD*%
M02*
