%TF.GenerationSoftware,KiCad,Pcbnew,8.0.5*%
%TF.CreationDate,2024-09-18T02:34:05+09:00*%
%TF.ProjectId,MIDI_Pedal,4d494449-5f50-4656-9461-6c2e6b696361,rev?*%
%TF.SameCoordinates,Original*%
%TF.FileFunction,Legend,Top*%
%TF.FilePolarity,Positive*%
%FSLAX46Y46*%
G04 Gerber Fmt 4.6, Leading zero omitted, Abs format (unit mm)*
G04 Created by KiCad (PCBNEW 8.0.5) date 2024-09-18 02:34:05*
%MOMM*%
%LPD*%
G01*
G04 APERTURE LIST*
%ADD10C,0.150000*%
%ADD11C,0.100000*%
%ADD12C,0.120000*%
G04 APERTURE END LIST*
D10*
X144238095Y-81254819D02*
X144238095Y-80254819D01*
X144238095Y-80731009D02*
X144809523Y-80731009D01*
X144809523Y-81254819D02*
X144809523Y-80254819D01*
X145714285Y-80588152D02*
X145714285Y-81254819D01*
X145476190Y-80207200D02*
X145238095Y-80921485D01*
X145238095Y-80921485D02*
X145857142Y-80921485D01*
X144238095Y-53154819D02*
X144238095Y-52154819D01*
X144238095Y-52631009D02*
X144809523Y-52631009D01*
X144809523Y-53154819D02*
X144809523Y-52154819D01*
X145190476Y-52154819D02*
X145809523Y-52154819D01*
X145809523Y-52154819D02*
X145476190Y-52535771D01*
X145476190Y-52535771D02*
X145619047Y-52535771D01*
X145619047Y-52535771D02*
X145714285Y-52583390D01*
X145714285Y-52583390D02*
X145761904Y-52631009D01*
X145761904Y-52631009D02*
X145809523Y-52726247D01*
X145809523Y-52726247D02*
X145809523Y-52964342D01*
X145809523Y-52964342D02*
X145761904Y-53059580D01*
X145761904Y-53059580D02*
X145714285Y-53107200D01*
X145714285Y-53107200D02*
X145619047Y-53154819D01*
X145619047Y-53154819D02*
X145333333Y-53154819D01*
X145333333Y-53154819D02*
X145238095Y-53107200D01*
X145238095Y-53107200D02*
X145190476Y-53059580D01*
X104238095Y-81254819D02*
X104238095Y-80254819D01*
X104238095Y-80731009D02*
X104809523Y-80731009D01*
X104809523Y-81254819D02*
X104809523Y-80254819D01*
X105238095Y-80350057D02*
X105285714Y-80302438D01*
X105285714Y-80302438D02*
X105380952Y-80254819D01*
X105380952Y-80254819D02*
X105619047Y-80254819D01*
X105619047Y-80254819D02*
X105714285Y-80302438D01*
X105714285Y-80302438D02*
X105761904Y-80350057D01*
X105761904Y-80350057D02*
X105809523Y-80445295D01*
X105809523Y-80445295D02*
X105809523Y-80540533D01*
X105809523Y-80540533D02*
X105761904Y-80683390D01*
X105761904Y-80683390D02*
X105190476Y-81254819D01*
X105190476Y-81254819D02*
X105809523Y-81254819D01*
X104238095Y-53154819D02*
X104238095Y-52154819D01*
X104238095Y-52631009D02*
X104809523Y-52631009D01*
X104809523Y-53154819D02*
X104809523Y-52154819D01*
X105809523Y-53154819D02*
X105238095Y-53154819D01*
X105523809Y-53154819D02*
X105523809Y-52154819D01*
X105523809Y-52154819D02*
X105428571Y-52297676D01*
X105428571Y-52297676D02*
X105333333Y-52392914D01*
X105333333Y-52392914D02*
X105238095Y-52440533D01*
D11*
X116078095Y-74133419D02*
X116078095Y-74942942D01*
X116078095Y-74942942D02*
X116125714Y-75038180D01*
X116125714Y-75038180D02*
X116173333Y-75085800D01*
X116173333Y-75085800D02*
X116268571Y-75133419D01*
X116268571Y-75133419D02*
X116459047Y-75133419D01*
X116459047Y-75133419D02*
X116554285Y-75085800D01*
X116554285Y-75085800D02*
X116601904Y-75038180D01*
X116601904Y-75038180D02*
X116649523Y-74942942D01*
X116649523Y-74942942D02*
X116649523Y-74133419D01*
X117649523Y-75133419D02*
X117078095Y-75133419D01*
X117363809Y-75133419D02*
X117363809Y-74133419D01*
X117363809Y-74133419D02*
X117268571Y-74276276D01*
X117268571Y-74276276D02*
X117173333Y-74371514D01*
X117173333Y-74371514D02*
X117078095Y-74419133D01*
D10*
X112792819Y-78311333D02*
X113507104Y-78311333D01*
X113507104Y-78311333D02*
X113649961Y-78358952D01*
X113649961Y-78358952D02*
X113745200Y-78454190D01*
X113745200Y-78454190D02*
X113792819Y-78597047D01*
X113792819Y-78597047D02*
X113792819Y-78692285D01*
X112792819Y-77358952D02*
X112792819Y-77835142D01*
X112792819Y-77835142D02*
X113269009Y-77882761D01*
X113269009Y-77882761D02*
X113221390Y-77835142D01*
X113221390Y-77835142D02*
X113173771Y-77739904D01*
X113173771Y-77739904D02*
X113173771Y-77501809D01*
X113173771Y-77501809D02*
X113221390Y-77406571D01*
X113221390Y-77406571D02*
X113269009Y-77358952D01*
X113269009Y-77358952D02*
X113364247Y-77311333D01*
X113364247Y-77311333D02*
X113602342Y-77311333D01*
X113602342Y-77311333D02*
X113697580Y-77358952D01*
X113697580Y-77358952D02*
X113745200Y-77406571D01*
X113745200Y-77406571D02*
X113792819Y-77501809D01*
X113792819Y-77501809D02*
X113792819Y-77739904D01*
X113792819Y-77739904D02*
X113745200Y-77835142D01*
X113745200Y-77835142D02*
X113697580Y-77882761D01*
X137332819Y-78311333D02*
X138047104Y-78311333D01*
X138047104Y-78311333D02*
X138189961Y-78358952D01*
X138189961Y-78358952D02*
X138285200Y-78454190D01*
X138285200Y-78454190D02*
X138332819Y-78597047D01*
X138332819Y-78597047D02*
X138332819Y-78692285D01*
X137332819Y-77930380D02*
X137332819Y-77263714D01*
X137332819Y-77263714D02*
X138332819Y-77692285D01*
X136834819Y-72723333D02*
X137549104Y-72723333D01*
X137549104Y-72723333D02*
X137691961Y-72770952D01*
X137691961Y-72770952D02*
X137787200Y-72866190D01*
X137787200Y-72866190D02*
X137834819Y-73009047D01*
X137834819Y-73009047D02*
X137834819Y-73104285D01*
X137834819Y-71723333D02*
X137834819Y-72294761D01*
X137834819Y-72009047D02*
X136834819Y-72009047D01*
X136834819Y-72009047D02*
X136977676Y-72104285D01*
X136977676Y-72104285D02*
X137072914Y-72199523D01*
X137072914Y-72199523D02*
X137120533Y-72294761D01*
X123812819Y-78311333D02*
X124527104Y-78311333D01*
X124527104Y-78311333D02*
X124669961Y-78358952D01*
X124669961Y-78358952D02*
X124765200Y-78454190D01*
X124765200Y-78454190D02*
X124812819Y-78597047D01*
X124812819Y-78597047D02*
X124812819Y-78692285D01*
X123812819Y-77406571D02*
X123812819Y-77597047D01*
X123812819Y-77597047D02*
X123860438Y-77692285D01*
X123860438Y-77692285D02*
X123908057Y-77739904D01*
X123908057Y-77739904D02*
X124050914Y-77835142D01*
X124050914Y-77835142D02*
X124241390Y-77882761D01*
X124241390Y-77882761D02*
X124622342Y-77882761D01*
X124622342Y-77882761D02*
X124717580Y-77835142D01*
X124717580Y-77835142D02*
X124765200Y-77787523D01*
X124765200Y-77787523D02*
X124812819Y-77692285D01*
X124812819Y-77692285D02*
X124812819Y-77501809D01*
X124812819Y-77501809D02*
X124765200Y-77406571D01*
X124765200Y-77406571D02*
X124717580Y-77358952D01*
X124717580Y-77358952D02*
X124622342Y-77311333D01*
X124622342Y-77311333D02*
X124384247Y-77311333D01*
X124384247Y-77311333D02*
X124289009Y-77358952D01*
X124289009Y-77358952D02*
X124241390Y-77406571D01*
X124241390Y-77406571D02*
X124193771Y-77501809D01*
X124193771Y-77501809D02*
X124193771Y-77692285D01*
X124193771Y-77692285D02*
X124241390Y-77787523D01*
X124241390Y-77787523D02*
X124289009Y-77835142D01*
X124289009Y-77835142D02*
X124384247Y-77882761D01*
X108632666Y-60116819D02*
X108632666Y-60831104D01*
X108632666Y-60831104D02*
X108585047Y-60973961D01*
X108585047Y-60973961D02*
X108489809Y-61069200D01*
X108489809Y-61069200D02*
X108346952Y-61116819D01*
X108346952Y-61116819D02*
X108251714Y-61116819D01*
X109061238Y-60212057D02*
X109108857Y-60164438D01*
X109108857Y-60164438D02*
X109204095Y-60116819D01*
X109204095Y-60116819D02*
X109442190Y-60116819D01*
X109442190Y-60116819D02*
X109537428Y-60164438D01*
X109537428Y-60164438D02*
X109585047Y-60212057D01*
X109585047Y-60212057D02*
X109632666Y-60307295D01*
X109632666Y-60307295D02*
X109632666Y-60402533D01*
X109632666Y-60402533D02*
X109585047Y-60545390D01*
X109585047Y-60545390D02*
X109013619Y-61116819D01*
X109013619Y-61116819D02*
X109632666Y-61116819D01*
X101772819Y-78311333D02*
X102487104Y-78311333D01*
X102487104Y-78311333D02*
X102629961Y-78358952D01*
X102629961Y-78358952D02*
X102725200Y-78454190D01*
X102725200Y-78454190D02*
X102772819Y-78597047D01*
X102772819Y-78597047D02*
X102772819Y-78692285D01*
X102106152Y-77406571D02*
X102772819Y-77406571D01*
X101725200Y-77644666D02*
X102439485Y-77882761D01*
X102439485Y-77882761D02*
X102439485Y-77263714D01*
X146732666Y-59862819D02*
X146732666Y-60577104D01*
X146732666Y-60577104D02*
X146685047Y-60719961D01*
X146685047Y-60719961D02*
X146589809Y-60815200D01*
X146589809Y-60815200D02*
X146446952Y-60862819D01*
X146446952Y-60862819D02*
X146351714Y-60862819D01*
X147113619Y-59862819D02*
X147732666Y-59862819D01*
X147732666Y-59862819D02*
X147399333Y-60243771D01*
X147399333Y-60243771D02*
X147542190Y-60243771D01*
X147542190Y-60243771D02*
X147637428Y-60291390D01*
X147637428Y-60291390D02*
X147685047Y-60339009D01*
X147685047Y-60339009D02*
X147732666Y-60434247D01*
X147732666Y-60434247D02*
X147732666Y-60672342D01*
X147732666Y-60672342D02*
X147685047Y-60767580D01*
X147685047Y-60767580D02*
X147637428Y-60815200D01*
X147637428Y-60815200D02*
X147542190Y-60862819D01*
X147542190Y-60862819D02*
X147256476Y-60862819D01*
X147256476Y-60862819D02*
X147161238Y-60815200D01*
X147161238Y-60815200D02*
X147113619Y-60767580D01*
X140890095Y-61684819D02*
X140890095Y-62494342D01*
X140890095Y-62494342D02*
X140937714Y-62589580D01*
X140937714Y-62589580D02*
X140985333Y-62637200D01*
X140985333Y-62637200D02*
X141080571Y-62684819D01*
X141080571Y-62684819D02*
X141271047Y-62684819D01*
X141271047Y-62684819D02*
X141366285Y-62637200D01*
X141366285Y-62637200D02*
X141413904Y-62589580D01*
X141413904Y-62589580D02*
X141461523Y-62494342D01*
X141461523Y-62494342D02*
X141461523Y-61684819D01*
X141890095Y-61780057D02*
X141937714Y-61732438D01*
X141937714Y-61732438D02*
X142032952Y-61684819D01*
X142032952Y-61684819D02*
X142271047Y-61684819D01*
X142271047Y-61684819D02*
X142366285Y-61732438D01*
X142366285Y-61732438D02*
X142413904Y-61780057D01*
X142413904Y-61780057D02*
X142461523Y-61875295D01*
X142461523Y-61875295D02*
X142461523Y-61970533D01*
X142461523Y-61970533D02*
X142413904Y-62113390D01*
X142413904Y-62113390D02*
X141842476Y-62684819D01*
X141842476Y-62684819D02*
X142461523Y-62684819D01*
D12*
%TO.C,J5*%
X114338000Y-79308000D02*
X114338000Y-77978000D01*
X115668000Y-79308000D02*
X114338000Y-79308000D01*
X116938000Y-76648000D02*
X119538000Y-76648000D01*
X116938000Y-79308000D02*
X116938000Y-76648000D01*
X116938000Y-79308000D02*
X119538000Y-79308000D01*
X119538000Y-79308000D02*
X119538000Y-76648000D01*
%TO.C,J7*%
X138878000Y-79308000D02*
X138878000Y-77978000D01*
X140208000Y-79308000D02*
X138878000Y-79308000D01*
X141478000Y-76648000D02*
X146618000Y-76648000D01*
X141478000Y-79308000D02*
X141478000Y-76648000D01*
X141478000Y-79308000D02*
X146618000Y-79308000D01*
X146618000Y-79308000D02*
X146618000Y-76648000D01*
%TO.C,J1*%
X138380000Y-73720000D02*
X138380000Y-72390000D01*
X139710000Y-73720000D02*
X138380000Y-73720000D01*
X140980000Y-71060000D02*
X148660000Y-71060000D01*
X140980000Y-73720000D02*
X140980000Y-71060000D01*
X140980000Y-73720000D02*
X148660000Y-73720000D01*
X148660000Y-73720000D02*
X148660000Y-71060000D01*
%TO.C,J6*%
X125358000Y-79308000D02*
X125358000Y-77978000D01*
X126688000Y-79308000D02*
X125358000Y-79308000D01*
X127958000Y-76648000D02*
X133098000Y-76648000D01*
X127958000Y-79308000D02*
X127958000Y-76648000D01*
X127958000Y-79308000D02*
X133098000Y-79308000D01*
X133098000Y-79308000D02*
X133098000Y-76648000D01*
%TO.C,J2*%
X107636000Y-61662000D02*
X108966000Y-61662000D01*
X107636000Y-62992000D02*
X107636000Y-61662000D01*
X107636000Y-64262000D02*
X107636000Y-74482000D01*
X107636000Y-64262000D02*
X110296000Y-64262000D01*
X107636000Y-74482000D02*
X110296000Y-74482000D01*
X110296000Y-64262000D02*
X110296000Y-74482000D01*
%TO.C,J4*%
X103318000Y-79308000D02*
X103318000Y-77978000D01*
X104648000Y-79308000D02*
X103318000Y-79308000D01*
X105918000Y-76648000D02*
X108518000Y-76648000D01*
X105918000Y-79308000D02*
X105918000Y-76648000D01*
X105918000Y-79308000D02*
X108518000Y-79308000D01*
X108518000Y-79308000D02*
X108518000Y-76648000D01*
%TO.C,J3*%
X145736000Y-61408000D02*
X147066000Y-61408000D01*
X145736000Y-62738000D02*
X145736000Y-61408000D01*
X145736000Y-64008000D02*
X145736000Y-69148000D01*
X145736000Y-64008000D02*
X148396000Y-64008000D01*
X145736000Y-69148000D02*
X148396000Y-69148000D01*
X148396000Y-64008000D02*
X148396000Y-69148000D01*
%TO.C,U2*%
X143092000Y-66660000D02*
X142612000Y-66660000D01*
X142852000Y-66330000D01*
X143092000Y-66660000D01*
G36*
X143092000Y-66660000D02*
G01*
X142612000Y-66660000D01*
X142852000Y-66330000D01*
X143092000Y-66660000D01*
G37*
X142552000Y-63160000D02*
X140752000Y-63160000D01*
X141552000Y-66380000D02*
X142352000Y-66380000D01*
X141552000Y-66380000D02*
X140752000Y-66380000D01*
%TD*%
M02*
